<svg width="500" height="500" viewBox="0 0 500 500" fill="none" xmlns="http://www.w3.org/2000/svg">
<path d="M105.845 165.211C109.927 185.933 96.3997 206.049 75.6307 210.143C54.8607 214.236 34.7137 200.755 30.6307 180.033C26.5467 159.311 40.0737 139.195 60.8437 135.103C81.6137 131.009 101.762 144.49 105.845 165.211Z" fill="#F5F5F5"/>
<path d="M96.8963 166.974C100.008 182.764 89.6993 198.094 73.8713 201.214C58.0443 204.333 42.6903 194.06 39.5793 178.269C36.4683 162.477 46.7763 147.147 62.6043 144.028C78.4303 140.91 93.7843 151.182 96.8963 166.974Z" fill="#EBEBEB"/>
<path d="M96.7123 166.077C96.5393 166.118 96.1693 164.884 95.2753 162.78C94.3733 160.691 92.8843 157.706 90.2383 154.648C88.9183 153.126 87.3183 151.592 85.4173 150.188C83.5073 148.803 81.3133 147.526 78.8443 146.568C77.6133 146.085 76.3213 145.662 74.9723 145.354C73.6263 145.038 72.2314 144.792 70.7984 144.684C69.3684 144.572 67.9023 144.536 66.4223 144.649C64.9433 144.759 63.4513 144.977 61.9633 145.308C60.4793 145.66 59.0403 146.115 57.6623 146.661C56.2813 147.207 54.9783 147.878 53.7393 148.604C52.4963 149.328 51.3493 150.158 50.2763 151.03C49.1973 151.896 48.2203 152.842 47.3233 153.813C45.5213 155.753 44.1043 157.861 42.9923 159.941C41.8963 162.033 41.1273 164.112 40.6033 166.059C39.5613 169.965 39.5253 173.299 39.6263 175.572C39.7423 177.855 39.9483 179.126 39.7743 179.164C39.6473 179.196 39.1503 177.987 38.7593 175.662C38.3863 173.35 38.1663 169.866 39.0633 165.691C39.5143 163.612 40.2393 161.373 41.3343 159.107C42.4443 156.853 43.8993 154.559 45.7903 152.436C46.7303 151.373 47.7623 150.34 48.9093 149.389C50.0503 148.433 51.2763 147.523 52.6073 146.729C53.9353 145.932 55.3383 145.198 56.8253 144.601C58.3103 144.002 59.8623 143.508 61.4623 143.13C63.0673 142.772 64.6773 142.54 66.2753 142.429C67.8733 142.317 69.4563 142.366 70.9983 142.502C72.5423 142.635 74.0433 142.919 75.4863 143.281C76.9323 143.635 78.3133 144.114 79.6233 144.659C82.2503 145.743 84.5613 147.17 86.5453 148.714C88.5173 150.274 90.1493 151.972 91.4643 153.645C94.0953 157.009 95.4193 160.239 96.0953 162.482C96.7603 164.744 96.8403 166.049 96.7123 166.077Z" fill="#E0E0E0"/>
<path d="M74.8476 189.076L75.9036 194.054L71.4596 194.995L70.4326 190.152C65.9766 190.818 61.4626 190.337 58.6136 188.944L59.9066 183.004C62.4776 184.178 65.9316 184.698 69.1986 184.331L67.6236 176.909C62.4366 176.757 56.5776 176.281 55.2296 169.925C54.2306 165.214 56.7946 160.445 63.6456 158.156L62.5996 153.222L67.0436 152.279L68.0706 157.124C71.4606 156.684 74.8916 156.884 77.6656 157.921L76.6036 163.859C74.0636 163.051 71.5926 162.786 69.3136 162.989L70.9166 170.545C76.0936 170.653 81.8656 171.149 83.1936 177.414C84.1756 182.036 81.6456 186.752 74.8476 189.076ZM66.2386 170.375L64.8986 164.065C62.6576 165.098 61.9976 166.585 62.3086 168.051C62.6386 169.606 64.1506 170.169 66.2386 170.375ZM76.1546 179.465C75.8246 177.908 74.3566 177.339 72.3036 177.076L73.6046 183.209C75.7226 182.249 76.4556 180.887 76.1546 179.465Z" fill="#E0E0E0"/>
<path d="M208.603 301.124C210.991 313.244 203.079 325.01 190.931 327.404C178.783 329.798 166.999 321.913 164.61 309.793C162.221 297.673 170.133 285.907 182.282 283.513C194.43 281.119 206.215 289.004 208.603 301.124Z" fill="#F5F5F5"/>
<path d="M203.369 302.155C205.189 311.391 199.16 320.357 189.902 322.182C180.645 324.006 171.664 317.997 169.844 308.762C168.024 299.525 174.054 290.559 183.311 288.735C192.569 286.91 201.549 292.919 203.369 302.155Z" fill="#EBEBEB"/>
<path d="M203.262 301.631C203.161 301.655 202.945 300.933 202.422 299.702C201.894 298.48 201.023 296.735 199.476 294.945C198.704 294.055 197.768 293.157 196.657 292.336C195.54 291.526 194.257 290.779 192.813 290.219C192.093 289.936 191.337 289.689 190.548 289.509C189.761 289.324 188.945 289.18 188.107 289.117C187.27 289.051 186.413 289.03 185.547 289.096C184.682 289.16 183.809 289.288 182.939 289.481C182.071 289.687 181.23 289.953 180.423 290.273C179.615 290.592 178.853 290.985 178.129 291.409C177.402 291.832 176.731 292.318 176.103 292.828C175.472 293.335 174.9 293.888 174.376 294.456C173.322 295.591 172.493 296.823 171.843 298.04C171.202 299.264 170.752 300.48 170.446 301.618C169.836 303.902 169.815 305.853 169.875 307.182C169.943 308.517 170.063 309.261 169.962 309.283C169.888 309.302 169.597 308.594 169.369 307.235C169.151 305.883 169.022 303.845 169.547 301.403C169.811 300.187 170.235 298.878 170.875 297.552C171.525 296.234 172.375 294.892 173.481 293.65C174.031 293.028 174.635 292.424 175.305 291.868C175.972 291.309 176.689 290.777 177.468 290.312C178.245 289.846 179.065 289.416 179.935 289.067C180.804 288.717 181.711 288.428 182.647 288.207C183.586 287.997 184.528 287.862 185.462 287.797C186.397 287.731 187.322 287.76 188.225 287.84C189.128 287.918 190.006 288.084 190.85 288.296C191.696 288.503 192.504 288.783 193.27 289.102C194.806 289.736 196.158 290.571 197.319 291.474C198.473 292.387 199.427 293.379 200.196 294.358C201.735 296.325 202.51 298.215 202.904 299.527C203.289 300.851 203.336 301.614 203.262 301.631Z" fill="#E0E0E0"/>
<path d="M190.473 315.084L191.091 317.995L188.492 318.546L187.891 315.713C185.285 316.102 182.644 315.821 180.978 315.006L181.734 311.531C183.238 312.217 185.258 312.522 187.168 312.307L186.247 307.966C183.213 307.877 179.786 307.599 178.998 303.881C178.414 301.126 179.913 298.336 183.921 296.998L183.309 294.112L185.909 293.56L186.51 296.394C188.492 296.136 190.5 296.254 192.122 296.86L191.501 300.333C190.015 299.861 188.57 299.705 187.237 299.824L188.175 304.243C191.203 304.306 194.579 304.596 195.356 308.261C195.928 310.966 194.449 313.724 190.473 315.084ZM185.437 304.146L184.653 300.455C183.342 301.059 182.956 301.929 183.138 302.787C183.332 303.696 184.216 304.025 185.437 304.146ZM191.237 309.462C191.044 308.552 190.186 308.218 188.985 308.065L189.746 311.652C190.985 311.091 191.413 310.294 191.237 309.462Z" fill="#E0E0E0"/>
<path d="M438.99 237.424L437.827 242.256L433.512 241.218L434.644 236.515C430.436 235.228 426.659 232.905 424.733 230.479L428.372 225.787C430.145 227.902 432.972 229.815 436.005 230.865L437.738 223.66C433.231 221.343 428.264 218.459 429.749 212.29C430.851 207.717 435.116 204.591 442.12 205.455L443.272 200.666L447.586 201.704L446.454 206.407C449.627 207.444 452.569 209.065 454.578 211.146L451.144 215.932C449.245 214.152 447.177 212.878 445.084 212.101L443.318 219.435C447.837 221.709 452.716 224.572 451.252 230.655C450.172 235.142 445.96 238.234 438.99 237.424ZM439.264 217.318L440.739 211.192C438.329 211.16 437.121 212.193 436.778 213.616C436.415 215.125 437.512 216.257 439.264 217.318ZM444.182 229.5C444.545 227.99 443.493 226.87 441.793 225.776L440.359 231.729C442.631 231.774 443.85 230.881 444.182 229.5Z" fill="#EBEBEB"/>
<path d="M453.01 123.388L453.389 131.964L445.732 132.302L445.364 123.956C437.762 123.831 430.385 121.778 426.028 118.672L429.826 109.144C433.78 111.809 439.384 113.632 444.921 113.925L444.357 101.137C435.766 99.4453 426.146 97.0313 425.663 86.0813C425.305 77.9653 430.895 70.7373 442.931 68.8243L442.556 60.3253L450.213 59.9873L450.581 68.3333C456.344 68.5393 462.001 69.8243 466.331 72.3183L462.919 81.9053C458.915 79.8573 454.876 78.7313 451.027 78.4413L451.602 91.4583C460.189 93.0743 469.655 95.4943 470.131 106.29C470.482 114.255 464.969 121.402 453.01 123.388ZM443.859 89.8833L443.38 79.0103C439.361 80.1083 437.852 82.4003 437.963 84.9273C438.081 87.6063 440.443 88.9593 443.859 89.8833ZM457.844 107.755C457.726 105.075 455.442 103.718 452.099 102.714L452.565 113.281C456.355 112.27 457.952 110.205 457.844 107.755Z" fill="#EBEBEB"/>
<path d="M481.976 453.36C481.976 453.504 378.108 453.62 250.011 453.62C121.869 453.62 18.0244 453.503 18.0244 453.36C18.0244 453.216 121.869 453.1 250.011 453.1C378.108 453.1 481.976 453.216 481.976 453.36Z" fill="#263238"/>
<path d="M407.898 289.713H92.1485C88.1665 289.713 84.9385 286.485 84.9385 282.503V49.2452C84.9385 45.2632 88.1665 42.0352 92.1485 42.0352H407.898C411.88 42.0352 415.108 45.2632 415.108 49.2452V282.503C415.108 286.485 411.88 289.713 407.898 289.713Z" fill="white"/>
<path d="M407.898 289.714C407.881 289.657 408.944 289.841 410.757 289.092C411.636 288.696 412.693 288.025 413.57 286.878C414.465 285.756 415.101 284.112 415.055 282.211C415.044 274.591 415.027 263.361 415.006 248.9C414.986 219.967 414.958 178.11 414.923 126.388C414.918 113.457 414.912 99.9086 414.906 85.7926C414.903 78.7346 414.901 71.5346 414.898 64.1976C414.897 60.5296 414.896 56.8276 414.894 53.0916C414.894 52.1576 414.893 51.2216 414.893 50.2836C414.897 49.3366 414.909 48.4226 414.673 47.5346C414.234 45.7596 413.054 44.1746 411.465 43.2366C410.674 42.7646 409.786 42.4526 408.87 42.3266C407.963 42.2076 406.99 42.2656 406.035 42.2516C404.118 42.2516 402.193 42.2526 400.26 42.2536C396.394 42.2546 392.497 42.2556 388.568 42.2566C380.711 42.2586 372.73 42.2606 364.63 42.2626C348.431 42.2666 331.759 42.2696 314.663 42.2736C246.276 42.2796 171.091 42.2866 92.1741 42.2946C89.7861 42.2776 87.4461 43.5706 86.2261 45.6196C85.5961 46.6256 85.2521 47.7986 85.2111 48.9806C85.1841 50.1886 85.2031 51.4296 85.1971 52.6516C85.1971 57.5556 85.1971 62.4446 85.1971 67.3166C85.1971 77.0616 85.1961 86.7426 85.1961 96.3526C85.1951 115.573 85.1931 134.512 85.1921 153.121C85.1871 190.339 85.1821 226.239 85.1771 260.438C85.1761 264.713 85.1751 268.961 85.1741 273.182C85.1741 275.293 85.1731 277.396 85.1731 279.493C85.1751 280.54 85.1771 281.585 85.1791 282.628C85.1971 283.639 85.4381 284.642 85.8791 285.547C86.7461 287.37 88.4471 288.758 90.3911 289.247C91.3581 289.517 92.3681 289.478 93.4091 289.48C94.4401 289.48 95.4691 289.48 96.4961 289.481C100.604 289.482 104.684 289.483 108.735 289.484C124.936 289.488 140.663 289.493 155.87 289.497C186.283 289.509 214.612 289.519 240.474 289.529C292.195 289.564 334.05 289.592 362.979 289.612C377.439 289.633 388.667 289.65 396.285 289.661C400.089 289.672 402.991 289.681 404.947 289.687C406.899 289.696 407.898 289.714 407.898 289.714C407.898 289.714 406.898 289.732 404.947 289.741C402.991 289.747 400.089 289.756 396.285 289.767C388.667 289.778 377.438 289.795 362.979 289.816C334.05 289.836 292.195 289.864 240.474 289.899C214.612 289.909 186.283 289.919 155.87 289.931C140.663 289.935 124.936 289.94 108.735 289.944C104.685 289.945 100.605 289.946 96.4961 289.947C95.4691 289.947 94.4401 289.947 93.4091 289.948C92.3951 289.946 91.3121 289.989 90.2741 289.702C88.1991 289.18 86.3851 287.702 85.4571 285.756C84.9861 284.79 84.7281 283.718 84.7081 282.64C84.7061 281.594 84.7031 280.546 84.7011 279.496C84.7001 277.399 84.7001 275.296 84.7001 273.185C84.6991 268.964 84.6981 264.716 84.6981 260.441C84.6931 226.242 84.6881 190.343 84.6831 153.124C84.6821 134.515 84.6801 115.576 84.6791 96.3556C84.6791 86.7456 84.6781 77.0646 84.6781 67.3196C84.6781 62.4476 84.6781 57.5586 84.6781 52.6546C84.6841 51.4246 84.6641 50.2106 84.6921 48.9646C84.7361 47.6936 85.1071 46.4316 85.7831 45.3506C87.0931 43.1496 89.6131 41.7576 92.1751 41.7766C171.092 41.7836 246.277 41.7906 314.664 41.7976C331.761 41.8016 348.432 41.8046 364.631 41.8086C372.73 41.8106 380.712 41.8126 388.569 41.8146C392.498 41.8156 396.395 41.8166 400.261 41.8176C402.194 41.8186 404.119 41.8186 406.036 41.8196C406.995 41.8356 407.943 41.7736 408.931 41.9006C409.904 42.0356 410.848 42.3676 411.688 42.8696C413.374 43.8666 414.626 45.5486 415.09 47.4336C415.341 48.3756 415.326 49.3626 415.321 50.2866C415.321 51.2246 415.32 52.1606 415.32 53.0946C415.319 56.8306 415.317 60.5326 415.316 64.2006C415.313 71.5366 415.311 78.7376 415.308 85.7956C415.302 99.9116 415.296 113.46 415.291 126.391C415.256 178.112 415.228 219.97 415.208 248.903C415.187 263.364 415.17 274.594 415.159 282.214C415.197 284.134 414.543 285.802 413.632 286.929C412.739 288.083 411.667 288.752 410.777 289.143C409.874 289.533 409.128 289.623 408.641 289.691C408.148 289.711 407.898 289.714 407.898 289.714Z" fill="#263238"/>
<path d="M391.327 145.199H262.986C258.45 145.199 254.773 141.522 254.773 136.985V87.9611C254.773 83.4251 258.45 79.7471 262.986 79.7471H391.327C395.863 79.7471 399.541 83.4241 399.541 87.9611V136.986C399.54 141.522 395.863 145.199 391.327 145.199Z" fill="#86C8C7"/>
<g opacity="0.2">
<path d="M332.89 109.732V112.328H330.572V109.802C328.278 109.663 326.076 108.945 324.801 107.948L326.075 105.12C327.234 105.978 328.903 106.603 330.571 106.766V102.895C327.999 102.27 325.125 101.412 325.125 98.097C325.125 95.641 326.909 93.531 330.571 93.114V90.54H332.889V93.066C334.627 93.205 336.32 93.669 337.594 94.48L336.435 97.331C335.253 96.659 334.048 96.265 332.889 96.126V100.066C335.461 100.669 338.289 101.527 338.289 104.795C338.291 107.205 336.529 109.291 332.89 109.732ZM330.572 99.487V96.196C329.343 96.474 328.857 97.146 328.857 97.911C328.857 98.722 329.552 99.162 330.572 99.487ZM334.559 105.073C334.559 104.261 333.886 103.821 332.89 103.473V106.672C334.049 106.417 334.559 105.815 334.559 105.073Z" fill="white"/>
</g>
<g opacity="0.2">
<path d="M343.998 126.099V128.109H342.204V126.153C340.428 126.046 338.722 125.489 337.736 124.717L338.722 122.528C339.619 123.192 340.912 123.676 342.204 123.802V120.805C340.212 120.321 337.987 119.657 337.987 117.09C337.987 115.188 339.369 113.555 342.204 113.232V111.24H343.998V113.196C345.344 113.303 346.654 113.662 347.641 114.291L346.745 116.498C345.83 115.977 344.896 115.672 343.999 115.565V118.615C345.991 119.082 348.181 119.746 348.181 122.276C348.179 124.142 346.815 125.758 343.998 126.099ZM342.204 118.167V115.619C341.253 115.834 340.876 116.355 340.876 116.947C340.876 117.575 341.414 117.916 342.204 118.167ZM345.29 122.492C345.29 121.864 344.769 121.523 343.998 121.254V123.731C344.895 123.533 345.29 123.066 345.29 122.492Z" fill="white"/>
</g>
<path d="M357.742 107.333C357.755 107.336 357.766 107.476 357.777 107.744C357.784 108.054 357.794 108.441 357.805 108.919C357.814 109.998 357.826 111.481 357.842 113.333C357.84 117.165 357.838 122.51 357.836 128.817L357.787 128.672C358.514 129.44 359.677 129.938 360.834 130.236C362.013 130.535 363.272 130.663 364.559 130.664C367.096 130.667 369.87 130.044 372.027 128.429L371.937 128.626V128.607C371.955 120.685 371.971 113.345 371.984 107.333L371.999 107.412C371.775 106.974 371.301 106.582 370.847 106.303C370.376 106.017 369.866 105.822 369.363 105.653C368.344 105.345 367.332 105.198 366.378 105.136C364.468 105.01 362.794 105.14 361.46 105.412C360.127 105.7 359.147 106.161 358.56 106.585C358.266 106.796 358.062 106.985 357.934 107.122C357.807 107.26 357.752 107.336 357.742 107.333C357.72 107.326 357.898 106.949 358.483 106.483C359.061 106.015 360.052 105.504 361.406 105.175C362.761 104.861 364.456 104.696 366.399 104.793C367.371 104.841 368.41 104.975 369.476 105.283C370.512 105.631 371.687 106.061 372.394 107.254L372.409 107.28V107.334C372.422 113.345 372.439 120.685 372.456 128.608V128.627V128.757L372.366 128.824C370.024 130.577 367.191 131.171 364.556 131.173C363.237 131.168 361.939 131.032 360.708 130.714C359.485 130.375 358.306 129.915 357.411 128.961L357.361 128.908L357.362 128.816C357.443 122.489 357.512 117.128 357.562 113.284C357.602 111.439 357.634 109.961 357.658 108.886C357.676 108.414 357.69 108.032 357.702 107.726C357.716 107.463 357.729 107.329 357.742 107.333Z" fill="white"/>
<path d="M372.197 107.37C372.227 107.415 371.569 107.989 370.302 108.622C369.042 109.274 367.075 109.728 364.928 109.701C362.793 109.721 360.812 109.382 359.529 108.759C358.243 108.162 357.572 107.606 357.6 107.56C357.643 107.481 358.392 107.928 359.669 108.418C360.941 108.931 362.823 109.197 364.929 109.18C367.03 109.203 368.895 108.829 370.153 108.285C371.416 107.759 372.151 107.294 372.197 107.37Z" fill="white"/>
<path d="M372.197 112.683C372.227 112.728 371.569 113.302 370.302 113.935C369.042 114.587 367.075 115.041 364.928 115.014C362.793 115.034 360.812 114.695 359.529 114.072C358.243 113.475 357.572 112.919 357.6 112.874C357.643 112.795 358.392 113.242 359.669 113.732C360.941 114.245 362.823 114.511 364.929 114.494C367.03 114.517 368.895 114.144 370.153 113.599C371.416 113.072 372.151 112.607 372.197 112.683Z" fill="white"/>
<path d="M372.197 117.997C372.227 118.042 371.569 118.616 370.302 119.249C369.042 119.901 367.075 120.355 364.928 120.328C362.793 120.348 360.812 120.009 359.529 119.386C358.243 118.789 357.572 118.233 357.6 118.188C357.643 118.109 358.392 118.556 359.669 119.046C360.941 119.559 362.823 119.824 364.929 119.808C367.03 119.831 368.895 119.458 370.153 118.913C371.416 118.386 372.151 117.921 372.197 117.997Z" fill="white"/>
<path d="M372.197 123.311C372.227 123.356 371.569 123.93 370.302 124.563C369.042 125.215 367.075 125.669 364.928 125.642C362.793 125.662 360.812 125.323 359.529 124.7C358.243 124.103 357.572 123.547 357.6 123.501C357.643 123.422 358.392 123.869 359.669 124.359C360.941 124.872 362.823 125.137 364.929 125.121C367.03 125.144 368.895 124.77 370.153 124.226C371.416 123.7 372.151 123.235 372.197 123.311Z" fill="white"/>
<path d="M372.262 96.4367C372.276 96.4407 372.288 96.6547 372.3 97.0637C372.308 97.5117 372.318 98.1077 372.331 98.8597C372.341 100.468 372.355 102.737 372.372 105.574C372.37 111.345 372.368 119.416 372.365 128.818L372.314 128.667C373.058 129.452 374.247 129.955 375.418 130.247C376.611 130.546 377.876 130.667 379.162 130.663C381.697 130.651 384.431 130.019 386.546 128.43L386.456 128.627V128.609C386.482 116.193 386.506 104.883 386.524 96.4387L386.538 96.5097C386.303 96.0547 385.82 95.6567 385.352 95.3777C384.873 95.0847 384.35 94.8927 383.84 94.7267C382.806 94.4177 381.783 94.2817 380.825 94.2177C378.904 94.1057 377.235 94.2357 375.912 94.5187C374.589 94.8137 373.628 95.2787 373.054 95.6987C372.767 95.9087 372.57 96.0967 372.445 96.2307C372.324 96.3657 372.271 96.4397 372.262 96.4367C372.253 96.4337 372.293 96.3427 372.403 96.1927C372.516 96.0437 372.705 95.8387 372.988 95.6087C373.554 95.1497 374.524 94.6407 375.865 94.3087C377.205 93.9877 378.894 93.8257 380.844 93.9097C381.819 93.9607 382.865 94.0847 383.942 94.3917C384.988 94.7327 386.183 95.1667 386.897 96.3647L386.911 96.3877V96.4367C386.929 104.881 386.953 116.191 386.979 128.607V128.625V128.754L386.889 128.822C384.59 130.547 381.799 131.154 379.165 131.175C377.847 131.177 376.543 131.051 375.296 130.735C374.056 130.404 372.851 129.945 371.926 128.966L371.874 128.911L371.875 128.815C371.955 119.392 372.024 111.303 372.074 105.519C372.116 102.689 372.15 100.426 372.174 98.8217C372.194 98.0767 372.209 97.4867 372.221 97.0427C372.234 96.6407 372.248 96.4337 372.262 96.4367Z" fill="white"/>
<path d="M386.717 107.37C386.747 107.415 386.089 107.989 384.822 108.622C383.562 109.274 381.595 109.728 379.448 109.701C377.313 109.721 375.332 109.382 374.049 108.759C372.763 108.162 372.092 107.606 372.12 107.56C372.163 107.481 372.912 107.928 374.189 108.418C375.461 108.931 377.343 109.197 379.449 109.18C381.55 109.203 383.414 108.829 384.673 108.285C385.936 107.759 386.671 107.294 386.717 107.37Z" fill="white"/>
<path d="M386.717 112.684C386.747 112.729 386.089 113.303 384.822 113.936C383.562 114.588 381.595 115.042 379.448 115.015C377.313 115.035 375.332 114.696 374.049 114.073C372.763 113.476 372.092 112.92 372.12 112.875C372.163 112.796 372.912 113.243 374.189 113.733C375.461 114.246 377.343 114.512 379.449 114.495C381.55 114.518 383.414 114.145 384.673 113.6C385.936 113.073 386.671 112.608 386.717 112.684Z" fill="white"/>
<path d="M386.717 101.923C386.747 101.968 386.089 102.542 384.822 103.175C383.562 103.827 381.595 104.281 379.448 104.254C377.313 104.274 375.332 103.935 374.049 103.312C372.763 102.715 372.092 102.159 372.12 102.113C372.163 102.034 372.912 102.481 374.189 102.971C375.461 103.484 377.343 103.75 379.449 103.733C381.55 103.756 383.414 103.382 384.673 102.838C385.936 102.312 386.671 101.847 386.717 101.923Z" fill="white"/>
<path d="M386.717 96.4369C386.747 96.4819 386.089 97.0559 384.822 97.6889C383.562 98.3419 381.595 98.7949 379.448 98.7679C377.313 98.7879 375.332 98.4489 374.049 97.8259C372.763 97.2289 372.092 96.6729 372.12 96.6269C372.163 96.5479 372.912 96.9949 374.189 97.4849C375.461 97.9979 377.343 98.2639 379.449 98.2469C381.55 98.2699 383.414 97.8959 384.673 97.3519C385.936 96.8259 386.671 96.3609 386.717 96.4369Z" fill="white"/>
<path d="M386.717 117.997C386.747 118.042 386.089 118.616 384.822 119.249C383.562 119.901 381.595 120.355 379.448 120.328C377.313 120.348 375.332 120.009 374.049 119.386C372.763 118.789 372.092 118.233 372.12 118.188C372.163 118.109 372.912 118.556 374.189 119.046C375.461 119.559 377.343 119.824 379.449 119.808C381.55 119.831 383.414 119.458 384.673 118.913C385.936 118.386 386.671 117.921 386.717 117.997Z" fill="white"/>
<path d="M386.717 123.312C386.747 123.357 386.089 123.931 384.822 124.564C383.562 125.216 381.595 125.67 379.448 125.643C377.313 125.663 375.332 125.324 374.049 124.701C372.763 124.104 372.092 123.548 372.12 123.502C372.163 123.423 372.912 123.87 374.189 124.36C375.461 124.873 377.343 125.138 379.449 125.122C381.55 125.145 383.414 124.771 384.673 124.227C385.936 123.701 386.671 123.236 386.717 123.312Z" fill="white"/>
<path d="M240.385 145.199H112.055C107.516 145.199 103.836 141.519 103.836 136.98V87.9661C103.836 83.4271 107.516 79.7471 112.055 79.7471H240.385C244.924 79.7471 248.604 83.4271 248.604 87.9661V136.98C248.603 141.52 244.924 145.199 240.385 145.199Z" fill="#E0E0E0"/>
<path d="M171.317 109.682V112.278H168.999V109.752C166.704 109.613 164.502 108.895 163.228 107.898L164.503 105.07C165.662 105.928 167.331 106.553 169 106.716V102.845C166.427 102.22 163.553 101.362 163.553 98.0472C163.553 95.5912 165.338 93.4812 169 93.0642V90.4902H171.318V93.0162C173.056 93.1552 174.748 93.6192 176.023 94.4302L174.864 97.2812C173.682 96.6092 172.477 96.2152 171.318 96.0762V100.016C173.891 100.619 176.718 101.477 176.718 104.745C176.717 107.155 174.956 109.241 171.317 109.682ZM168.999 99.4372V96.1462C167.77 96.4242 167.284 97.0962 167.284 97.8612C167.284 98.6722 167.979 99.1122 168.999 99.4372ZM172.985 105.023C172.985 104.212 172.313 103.771 171.317 103.423V106.622C172.476 106.367 172.985 105.765 172.985 105.023Z" fill="#EBEBEB"/>
<path d="M182.426 126.048V128.058H180.632V126.102C178.855 125.995 177.15 125.438 176.164 124.666L177.151 122.477C178.049 123.14 179.34 123.625 180.633 123.751V120.754C178.641 120.269 176.416 119.606 176.416 117.04C176.416 115.138 177.798 113.505 180.633 113.182V111.19H182.427V113.146C183.773 113.253 185.083 113.612 186.07 114.24L185.173 116.448C184.258 115.927 183.325 115.622 182.428 115.515V118.565C184.42 119.032 186.609 119.695 186.609 122.226C186.607 124.092 185.243 125.707 182.426 126.048ZM180.632 118.117V115.569C179.681 115.784 179.304 116.305 179.304 116.897C179.303 117.525 179.842 117.866 180.632 118.117ZM183.718 122.441C183.718 121.813 183.197 121.472 182.426 121.203V123.679C183.323 123.482 183.718 123.015 183.718 122.441Z" fill="#EBEBEB"/>
<path d="M116.781 102.889H115.114V102.455H118.949V102.889H117.282V107.198H116.781V102.889Z" fill="#263238"/>
<path d="M118.914 105.415C118.914 104.358 119.686 103.606 120.73 103.606C121.773 103.606 122.539 104.358 122.539 105.415C122.539 106.472 121.773 107.23 120.73 107.23C119.686 107.23 118.914 106.472 118.914 105.415ZM122.05 105.415C122.05 104.581 121.488 104.026 120.729 104.026C119.97 104.026 119.401 104.582 119.401 105.415C119.401 106.248 119.97 106.804 120.729 106.804C121.488 106.803 122.05 106.248 122.05 105.415Z" fill="#263238"/>
<path d="M125.396 106.98C125.206 107.149 124.922 107.231 124.644 107.231C123.973 107.231 123.6 106.852 123.6 106.194V104.04H122.963V103.634H123.6V102.855H124.081V103.634H125.165V104.04H124.081V106.167C124.081 106.587 124.298 106.817 124.698 106.817C124.894 106.817 125.091 106.756 125.226 106.634L125.396 106.98Z" fill="#263238"/>
<path d="M128.96 104.988V107.197H128.499V106.641C128.282 107.007 127.862 107.23 127.273 107.23C126.467 107.23 125.972 106.81 125.972 106.193C125.972 105.645 126.325 105.184 127.347 105.184H128.478V104.967C128.478 104.357 128.132 104.025 127.469 104.025C127.008 104.025 126.574 104.188 126.283 104.445L126.066 104.086C126.425 103.781 126.954 103.605 127.516 103.605C128.439 103.606 128.96 104.067 128.96 104.988ZM128.479 106.126V105.543H127.361C126.67 105.543 126.446 105.814 126.446 106.18C126.446 106.593 126.778 106.85 127.347 106.85C127.89 106.851 128.289 106.594 128.479 106.126Z" fill="#263238"/>
<path d="M130.267 102.171H130.748V107.198H130.267V102.171Z" fill="#263238"/>
<path d="M133.544 104.826C133.544 103.444 134.601 102.414 136.037 102.414C137.459 102.414 138.523 103.437 138.523 104.826C138.523 106.215 137.459 107.238 136.037 107.238C134.601 107.238 133.544 106.208 133.544 104.826ZM138.022 104.826C138.022 103.695 137.175 102.861 136.037 102.861C134.892 102.861 134.038 103.694 134.038 104.826C134.038 105.957 134.892 106.791 136.037 106.791C137.175 106.791 138.022 105.958 138.022 104.826Z" fill="#263238"/>
<path d="M141.34 103.606V104.074C141.3 104.074 141.259 104.067 141.225 104.067C140.479 104.067 140.026 104.541 140.026 105.381V107.196H139.545V103.633H140.005V104.331C140.229 103.857 140.683 103.606 141.34 103.606Z" fill="#263238"/>
<path d="M145.425 102.171V107.198H144.964V106.493C144.673 106.974 144.178 107.231 143.589 107.231C142.572 107.231 141.814 106.493 141.814 105.416C141.814 104.339 142.573 103.607 143.589 103.607C144.158 103.607 144.646 103.851 144.943 104.312V102.171H145.425ZM144.95 105.416C144.95 104.582 144.381 104.027 143.629 104.027C142.87 104.027 142.301 104.583 142.301 105.416C142.301 106.249 142.87 106.805 143.629 106.805C144.382 106.804 144.95 106.249 144.95 105.416Z" fill="#263238"/>
<path d="M149.867 105.564H146.886C146.94 106.309 147.509 106.804 148.289 106.804C148.723 106.804 149.108 106.648 149.379 106.337L149.65 106.649C149.332 107.028 148.837 107.231 148.275 107.231C147.164 107.231 146.405 106.472 146.405 105.416C146.405 104.359 147.144 103.607 148.146 103.607C149.149 103.607 149.874 104.346 149.874 105.416C149.874 105.455 149.867 105.51 149.867 105.564ZM146.886 105.205H149.413C149.352 104.507 148.844 104.019 148.146 104.019C147.456 104.019 146.947 104.507 146.886 105.205Z" fill="#263238"/>
<path d="M152.65 103.606V104.074C152.61 104.074 152.569 104.067 152.535 104.067C151.789 104.067 151.336 104.541 151.336 105.381V107.196H150.855V103.633H151.316V104.331C151.54 103.857 151.994 103.606 152.65 103.606Z" fill="#263238"/>
<path d="M121.584 113.216V127.935H118.178V115.95H115.234V113.217L121.584 113.216Z" fill="#263238"/>
<path d="M135.146 125.16V127.935H124.023V125.727L129.7 120.366C131.004 119.125 131.235 118.368 131.235 117.653C131.235 116.497 130.436 115.824 128.881 115.824C127.619 115.824 126.547 116.307 125.832 117.296L123.351 115.698C124.486 114.037 126.547 112.965 129.196 112.965C132.476 112.965 134.663 114.647 134.663 117.317C134.663 118.747 134.264 120.051 132.202 121.964L128.817 125.16H135.146Z" fill="#263238"/>
<path d="M136.509 120.576C136.509 115.719 139.201 112.965 142.817 112.965C146.455 112.965 149.125 115.719 149.125 120.576C149.125 125.433 146.455 128.188 142.817 128.188C139.2 128.187 136.509 125.433 136.509 120.576ZM145.698 120.576C145.698 117.233 144.52 115.845 142.817 115.845C141.135 115.845 139.958 117.233 139.958 120.576C139.958 123.919 141.135 125.307 142.817 125.307C144.52 125.307 145.698 123.919 145.698 120.576Z" fill="#263238"/>
<path d="M233.839 127.438H197.772C196.02 127.438 194.6 126.018 194.6 124.266V103.383C194.6 101.631 196.02 100.211 197.772 100.211H233.839C235.591 100.211 237.011 101.631 237.011 103.383V124.266C237.011 126.018 235.591 127.438 233.839 127.438Z" fill="#F5F5F5"/>
<path d="M206.325 105.224H199.41V107.738H206.325V105.224Z" fill="#E0E0E0"/>
<path d="M207.763 112.895C207.763 113.039 205.571 113.156 202.869 113.156C200.165 113.156 197.974 113.039 197.974 112.895C197.974 112.751 200.165 112.635 202.869 112.635C205.572 112.635 207.763 112.751 207.763 112.895Z" fill="#E0E0E0"/>
<path d="M214.463 112.895C214.463 113.039 213.367 113.156 212.016 113.156C210.664 113.156 209.568 113.039 209.568 112.895C209.568 112.751 210.664 112.635 212.016 112.635C213.367 112.635 214.463 112.751 214.463 112.895Z" fill="#E0E0E0"/>
<path d="M232.669 112.895C232.669 113.039 231.032 113.156 229.013 113.156C226.993 113.156 225.357 113.039 225.357 112.895C225.357 112.751 226.994 112.635 229.013 112.635C231.032 112.635 232.669 112.751 232.669 112.895Z" fill="#E0E0E0"/>
<path d="M223.629 112.895C223.629 113.039 222.047 113.156 220.097 113.156C218.146 113.156 216.565 113.039 216.565 112.895C216.565 112.751 218.146 112.635 220.097 112.635C222.047 112.635 223.629 112.751 223.629 112.895Z" fill="#E0E0E0"/>
<path d="M205.389 118.996C205.389 119.14 203.77 119.256 201.774 119.256C199.777 119.256 198.159 119.14 198.159 118.996C198.159 118.852 199.777 118.736 201.774 118.736C203.771 118.736 205.389 118.853 205.389 118.996Z" fill="#E0E0E0"/>
<path d="M211.527 121.594C211.527 121.738 208.534 121.854 204.843 121.854C201.151 121.854 198.159 121.737 198.159 121.594C198.159 121.451 201.151 121.334 204.843 121.334C208.534 121.334 211.527 121.45 211.527 121.594Z" fill="#E0E0E0"/>
<path d="M232.67 121.594C232.67 121.738 231.404 121.854 229.844 121.854C228.283 121.854 227.017 121.737 227.017 121.594C227.017 121.451 228.282 121.334 229.844 121.334C231.404 121.334 232.67 121.45 232.67 121.594Z" fill="#E0E0E0"/>
<path d="M267.718 105.187H266.051V104.753H269.886V105.187H268.219V109.496H267.718V105.187Z" fill="white"/>
<path d="M269.851 107.713C269.851 106.656 270.623 105.904 271.666 105.904C272.71 105.904 273.475 106.656 273.475 107.713C273.475 108.77 272.71 109.528 271.666 109.528C270.624 109.528 269.851 108.769 269.851 107.713ZM272.988 107.713C272.988 106.88 272.425 106.324 271.667 106.324C270.908 106.324 270.339 106.88 270.339 107.713C270.339 108.547 270.908 109.102 271.667 109.102C272.425 109.101 272.988 108.546 272.988 107.713Z" fill="white"/>
<path d="M276.333 109.278C276.144 109.447 275.859 109.528 275.581 109.528C274.91 109.528 274.538 109.149 274.538 108.491V106.337H273.901V105.931H274.538V105.152H275.018V105.931H276.102V106.337H275.018V108.464C275.018 108.884 275.235 109.114 275.635 109.114C275.831 109.114 276.028 109.053 276.163 108.931L276.333 109.278Z" fill="white"/>
<path d="M279.896 107.286V109.494H279.436V108.938C279.219 109.304 278.798 109.527 278.209 109.527C277.402 109.527 276.908 109.107 276.908 108.49C276.908 107.942 277.261 107.481 278.283 107.481H279.415V107.264C279.415 106.654 279.069 106.322 278.405 106.322C277.944 106.322 277.51 106.485 277.22 106.742L277.003 106.383C277.362 106.078 277.891 105.902 278.453 105.902C279.375 105.904 279.896 106.365 279.896 107.286ZM279.416 108.424V107.841H278.298C277.607 107.841 277.383 108.112 277.383 108.478C277.383 108.891 277.715 109.148 278.284 109.148C278.826 109.149 279.225 108.891 279.416 108.424Z" fill="white"/>
<path d="M281.203 104.469H281.684V109.496H281.203V104.469Z" fill="white"/>
<path d="M288.138 109.495L287.054 107.971C286.932 107.985 286.81 107.992 286.674 107.992H285.401V109.496H284.9V104.754H286.674C287.88 104.754 288.613 105.363 288.613 106.38C288.613 107.125 288.22 107.647 287.529 107.87L288.687 109.496L288.138 109.495ZM288.111 106.379C288.111 105.62 287.61 105.187 286.662 105.187H285.401V107.565H286.662C287.61 107.565 288.111 107.124 288.111 106.379Z" fill="white"/>
<path d="M292.799 107.862H289.819C289.873 108.607 290.442 109.102 291.221 109.102C291.655 109.102 292.04 108.946 292.312 108.635L292.583 108.947C292.265 109.326 291.77 109.529 291.208 109.529C290.097 109.529 289.338 108.77 289.338 107.714C289.338 106.657 290.076 105.905 291.079 105.905C292.082 105.905 292.807 106.644 292.807 107.714C292.806 107.753 292.799 107.807 292.799 107.862ZM289.819 107.503H292.345C292.284 106.805 291.777 106.317 291.078 106.317C290.387 106.317 289.879 106.805 289.819 107.503Z" fill="white"/>
<path d="M296.714 105.932L295.129 109.495H294.634L293.056 105.932H293.557L294.892 108.967L296.241 105.932H296.714Z" fill="white"/>
<path d="M300.392 107.862H297.412C297.466 108.607 298.035 109.102 298.814 109.102C299.248 109.102 299.633 108.946 299.905 108.635L300.176 108.947C299.858 109.326 299.363 109.529 298.801 109.529C297.69 109.529 296.931 108.77 296.931 107.714C296.931 106.657 297.669 105.905 298.672 105.905C299.675 105.905 300.4 106.644 300.4 107.714C300.399 107.753 300.392 107.807 300.392 107.862ZM297.412 107.503H299.938C299.878 106.805 299.37 106.317 298.671 106.317C297.98 106.317 297.472 106.805 297.412 107.503Z" fill="white"/>
<path d="M304.66 107.428V109.494H304.179V107.475C304.179 106.723 303.786 106.337 303.109 106.337C302.343 106.337 301.862 106.812 301.862 107.624V109.494H301.382V105.931H301.843V106.588C302.1 106.154 302.581 105.903 303.197 105.903C304.063 105.904 304.66 106.405 304.66 107.428Z" fill="white"/>
<path d="M309.176 105.932V109.495H308.715V108.845C308.465 109.279 308.004 109.529 307.435 109.529C306.528 109.529 305.931 109.021 305.931 107.998V105.932H306.412V107.951C306.412 108.71 306.805 109.096 307.482 109.096C308.227 109.096 308.695 108.615 308.695 107.802V105.932H309.176Z" fill="white"/>
<path d="M313.627 107.862H310.647C310.701 108.607 311.27 109.102 312.049 109.102C312.483 109.102 312.868 108.946 313.14 108.635L313.411 108.947C313.093 109.326 312.598 109.529 312.036 109.529C310.925 109.529 310.166 108.77 310.166 107.714C310.166 106.657 310.904 105.905 311.907 105.905C312.91 105.905 313.635 106.644 313.635 107.714C313.633 107.753 313.627 107.807 313.627 107.862ZM310.646 107.503H313.172C313.112 106.805 312.604 106.317 311.905 106.317C311.214 106.317 310.707 106.805 310.646 107.503Z" fill="white"/>
<path d="M271.643 128.053V129.723H270.153V128.098C268.678 128.009 267.26 127.546 266.441 126.905L267.26 125.087C268.006 125.638 269.079 126.041 270.153 126.145V123.656C268.498 123.253 266.649 122.702 266.649 120.57C266.649 118.99 267.797 117.633 270.153 117.365V115.71H271.643V117.335C272.761 117.424 273.85 117.723 274.669 118.245L273.924 120.078C273.163 119.646 272.389 119.392 271.643 119.303V121.838C273.298 122.226 275.117 122.777 275.117 124.879C275.117 126.428 273.984 127.77 271.643 128.053ZM270.153 121.464V119.347C269.363 119.526 269.049 119.958 269.049 120.45C269.049 120.973 269.497 121.256 270.153 121.464ZM272.717 125.057C272.717 124.536 272.284 124.252 271.643 124.029V126.086C272.389 125.922 272.717 125.534 272.717 125.057Z" fill="white"/>
<path d="M279.987 117.499V127.935H277.572V119.437H275.485V117.499H279.987Z" fill="white"/>
<path d="M289.69 124.655C289.69 126.504 288.333 128.113 285.352 128.113C283.906 128.113 282.385 127.711 281.372 126.995L282.326 125.146C283.116 125.742 284.204 126.085 285.293 126.085C286.5 126.085 287.245 125.578 287.245 124.729C287.245 123.909 286.709 123.372 284.815 123.372H282.146L282.683 117.498H289.048V119.436H284.695L284.531 121.419H285.381C288.467 121.42 289.69 122.806 289.69 124.655Z" fill="white"/>
<path d="M293.487 126.593C293.487 126.981 293.427 127.264 293.084 128.084L292.234 130.231H290.758L291.414 127.86C290.922 127.666 290.608 127.204 290.608 126.593C290.608 125.728 291.234 125.162 292.054 125.162C292.89 125.161 293.487 125.743 293.487 126.593Z" fill="white"/>
<path d="M294.38 122.717C294.38 119.273 296.288 117.321 298.853 117.321C301.432 117.321 303.326 119.274 303.326 122.717C303.326 126.161 301.432 128.113 298.853 128.113C296.289 128.113 294.38 126.16 294.38 122.717ZM300.895 122.717C300.895 120.347 300.061 119.363 298.853 119.363C297.661 119.363 296.826 120.347 296.826 122.717C296.826 125.088 297.661 126.071 298.853 126.071C300.061 126.071 300.895 125.087 300.895 122.717Z" fill="white"/>
<path d="M304.497 122.717C304.497 119.273 306.405 117.321 308.97 117.321C311.549 117.321 313.443 119.274 313.443 122.717C313.443 126.161 311.55 128.113 308.97 128.113C306.405 128.113 304.497 126.16 304.497 122.717ZM311.011 122.717C311.011 120.347 310.177 119.363 308.969 119.363C307.777 119.363 306.942 120.347 306.942 122.717C306.942 125.088 307.777 126.071 308.969 126.071C310.177 126.071 311.011 125.087 311.011 122.717Z" fill="white"/>
<path d="M314.614 122.717C314.614 119.273 316.522 117.321 319.087 117.321C321.666 117.321 323.56 119.274 323.56 122.717C323.56 126.161 321.666 128.113 319.087 128.113C316.522 128.113 314.614 126.16 314.614 122.717ZM321.128 122.717C321.128 120.347 320.294 119.363 319.086 119.363C317.894 119.363 317.059 120.347 317.059 122.717C317.059 125.088 317.894 126.071 319.086 126.071C320.295 126.071 321.128 125.087 321.128 122.717Z" fill="white"/>
<path d="M389.141 274.77C389.141 274.77 389.318 274.752 389.667 274.73C390.018 274.726 390.535 274.651 391.215 274.529C392.538 274.23 394.589 273.525 396.46 271.564C397.38 270.589 398.217 269.3 398.735 267.725C398.971 266.934 399.164 266.081 399.194 265.176C399.248 264.275 399.206 263.319 399.216 262.334C399.209 258.385 399.201 253.829 399.192 248.701C399.18 238.442 399.165 225.892 399.148 211.322C399.142 204.036 399.135 196.246 399.128 187.984C399.125 183.853 399.122 179.604 399.119 175.242C399.117 173.061 399.116 170.851 399.114 168.614C399.102 167.499 399.144 166.358 399.061 165.256C398.939 164.15 398.639 163.058 398.163 162.039C397.225 159.992 395.53 158.273 393.451 157.284C392.414 156.786 391.285 156.466 390.126 156.345C388.974 156.259 387.76 156.311 386.566 156.297C381.767 156.3 376.862 156.302 371.857 156.305C361.846 156.31 351.432 156.315 340.649 156.32C319.082 156.327 296.039 156.336 271.79 156.344C223.292 156.35 169.973 156.357 114.008 156.364C112.304 156.382 110.601 156.804 109.124 157.649C107.651 158.494 106.382 159.701 105.52 161.163C104.626 162.606 104.163 164.29 104.11 165.976C104.081 167.694 104.102 169.436 104.095 171.16C104.095 178.071 104.094 184.936 104.094 191.751C104.093 205.382 104.091 218.812 104.09 232.009C104.089 238.607 104.088 245.148 104.087 251.625C104.086 254.864 104.086 258.087 104.085 261.293V263.695C104.088 264.501 104.075 265.281 104.2 266.049C104.429 267.584 104.994 269.078 105.908 270.33C106.81 271.585 107.988 272.645 109.351 273.365C110.715 274.08 112.238 274.473 113.77 274.509C116.908 274.513 120.029 274.518 123.132 274.522C129.342 274.524 135.48 274.525 141.543 274.527C190.047 274.548 233.725 274.567 270.408 274.583C307.085 274.618 336.766 274.646 357.284 274.666C367.536 274.687 375.498 274.704 380.904 274.715C383.6 274.726 385.657 274.735 387.047 274.741C388.432 274.752 389.141 274.77 389.141 274.77C389.141 274.77 388.432 274.788 387.048 274.797C385.658 274.803 383.601 274.811 380.905 274.823C375.499 274.834 367.538 274.851 357.285 274.872C336.767 274.892 307.086 274.92 270.409 274.955C233.726 274.971 190.048 274.99 141.544 275.011C135.481 275.013 129.342 275.014 123.133 275.016C120.027 275.013 116.902 275.01 113.761 275.007C112.154 274.97 110.553 274.557 109.12 273.807C107.689 273.052 106.451 271.94 105.503 270.622C104.544 269.307 103.948 267.738 103.707 266.125C103.575 265.317 103.589 264.49 103.586 263.699V261.297C103.585 258.09 103.585 254.867 103.584 251.629C103.583 245.152 103.582 238.611 103.581 232.013C103.58 218.816 103.578 205.385 103.577 191.755C103.577 184.94 103.576 178.075 103.576 171.164C103.582 169.433 103.561 167.713 103.59 165.965C103.645 164.191 104.134 162.417 105.074 160.898C105.982 159.36 107.316 158.089 108.867 157.2C110.421 156.311 112.217 155.865 114.007 155.848C169.972 155.855 223.291 155.862 271.789 155.869C296.038 155.877 319.081 155.885 340.648 155.893C351.431 155.898 361.845 155.903 371.856 155.908C376.861 155.911 381.766 155.913 386.565 155.916C387.77 155.932 388.945 155.878 390.162 155.97C391.365 156.097 392.537 156.43 393.613 156.949C395.77 157.979 397.525 159.763 398.496 161.887C398.989 162.944 399.298 164.077 399.423 165.224C399.508 166.384 399.462 167.495 399.473 168.618C399.472 170.855 399.47 173.065 399.468 175.246C399.465 179.608 399.462 183.857 399.459 187.988C399.452 196.25 399.445 204.04 399.439 211.326C399.422 225.895 399.407 238.445 399.395 248.705C399.386 253.833 399.378 258.389 399.371 262.338C399.356 263.327 399.395 264.271 399.336 265.188C399.302 266.106 399.102 266.969 398.859 267.769C398.326 269.362 397.471 270.661 396.536 271.64C394.633 273.609 392.558 274.302 391.225 274.585C390.54 274.698 390.02 274.765 389.668 274.761C389.318 274.77 389.141 274.77 389.141 274.77Z" fill="#E0E0E0"/>
<path d="M203.776 229.969H194.174V268.078H203.776V229.969Z" fill="#EBEBEB"/>
<path d="M218.154 241.497H208.552V268.077H218.154V241.497Z" fill="#EBEBEB"/>
<path d="M189.991 241.497H180.389V268.077H189.991V241.497Z" fill="#EBEBEB"/>
<path d="M161.828 264.539H152.226V268.078H161.828V264.539Z" fill="#EBEBEB"/>
<path d="M176.101 259.202H166.499V268.077H176.101V259.202Z" fill="#EBEBEB"/>
<path d="M148.086 265.131H138.484V268.078H148.086V265.131Z" fill="#EBEBEB"/>
<path d="M133.665 265.131H124.062V268.078H133.665V265.131Z" fill="#EBEBEB"/>
<path d="M233.296 246.848H223.694V268.078H233.296V246.848Z" fill="#EBEBEB"/>
<path d="M248.44 252.68H238.838V268.078H248.44V252.68Z" fill="#EBEBEB"/>
<path d="M263.581 241.497H253.979V268.077H263.581V241.497Z" fill="#EBEBEB"/>
<path d="M278.724 224.898H269.122V268.077H278.724V224.898Z" fill="#EBEBEB"/>
<path d="M293.867 212.121H284.265V268.078H293.867V212.121Z" fill="#EBEBEB"/>
<path d="M309.009 229.969H299.407V268.078H309.009V229.969Z" fill="#EBEBEB"/>
<path d="M324.152 195.756H314.55V268.078H324.152V195.756Z" fill="#EBEBEB"/>
<path d="M339.294 229.969H329.692V268.078H339.294V229.969Z" fill="#EBEBEB"/>
<path d="M354.437 241.497H344.835V268.077H354.437V241.497Z" fill="#EBEBEB"/>
<path d="M369.58 246.489H359.978V268.078H369.58V246.489Z" fill="#EBEBEB"/>
<path d="M384.721 252.68H375.119V268.078H384.721V252.68Z" fill="#EBEBEB"/>
<path d="M131.947 268.078C131.947 268.078 132.267 268.06 132.89 268.051C133.527 268.045 134.451 268.037 135.659 268.025C138.106 268.014 141.691 267.997 146.305 267.976C147.461 267.972 148.681 267.968 149.964 267.964C151.249 267.972 152.586 267.948 153.974 267.76C156.739 267.396 159.714 266.485 162.468 264.732C163.846 263.864 165.134 262.75 166.254 261.424C167.347 260.087 168.089 258.418 168.871 256.742C170.37 253.343 171.73 249.649 173.12 245.76C174.48 241.858 175.905 237.769 177.389 233.51C178.143 231.383 178.904 229.21 179.777 227.026C180.685 224.855 181.714 222.673 183.062 220.627C184.415 218.59 186.033 216.664 187.969 215.024C189.899 213.383 192.146 212.043 194.602 211.139C197.057 210.227 199.715 209.802 202.398 209.766C205.075 209.757 207.809 209.995 210.469 210.755C211.807 211.102 213.095 211.645 214.355 212.252C215.58 212.926 216.796 213.658 217.859 214.601C220.046 216.417 221.74 218.799 223.072 221.35C224.418 223.917 225.197 226.74 226.094 229.507C226.969 232.291 227.848 235.101 228.828 237.903C230.8 243.485 233.051 249.154 236.478 254.215C238.195 256.72 240.262 259.071 242.865 260.698C244.15 261.533 245.607 262.082 247.105 262.38C247.853 262.56 248.624 262.566 249.393 262.61C250.169 262.566 250.954 262.601 251.726 262.493C253.836 262.303 255.919 261.791 257.755 260.794C259.597 259.804 261.088 258.281 262.304 256.595C263.515 254.894 264.527 253.053 265.558 251.235C266.588 249.428 267.486 247.558 268.312 245.67C271.592 238.1 273.63 230.21 276.694 222.934C278.141 219.272 279.634 215.661 281.521 212.309C283.384 208.948 285.711 205.9 288.404 203.327C289.754 202.058 291.175 200.836 292.775 199.926C294.332 198.943 296.045 198.292 297.743 197.71C301.181 196.638 304.738 196.304 308.172 196.443C311.61 196.595 314.954 197.24 318.045 198.37C321.132 199.509 323.927 201.222 326.248 203.304C330.934 207.445 334.337 212.297 338.221 216.142C342.054 220.063 346.796 222.3 351.203 223.754C355.652 225.192 359.894 225.831 363.677 226.13H363.668C371.32 226.156 377.226 226.176 381.234 226.19C383.222 226.204 384.737 226.215 385.769 226.223C386.788 226.234 387.308 226.257 387.308 226.257C387.308 226.257 386.788 226.28 385.769 226.291C384.737 226.298 383.222 226.309 381.234 226.324C377.226 226.338 371.321 226.358 363.668 226.384H363.664H363.659C359.858 226.104 355.593 225.482 351.107 224.051C346.666 222.605 341.861 220.361 337.965 216.4C334.042 212.536 330.624 207.696 325.979 203.613C323.675 201.558 320.943 199.893 317.897 198.774C314.849 197.667 311.545 197.036 308.153 196.892C304.764 196.761 301.257 197.096 297.882 198.155C294.504 199.216 291.345 201.072 288.735 203.676C286.081 206.218 283.791 209.224 281.95 212.553C280.086 215.873 278.604 219.462 277.162 223.122C274.112 230.379 272.087 238.248 268.787 245.88C267.956 247.781 267.051 249.668 266.012 251.494C264.982 253.311 263.968 255.162 262.729 256.903C261.488 258.628 259.933 260.221 258.01 261.255C256.094 262.296 253.937 262.822 251.779 263.016C250.987 263.127 250.19 263.092 249.398 263.136C248.599 263.092 247.792 263.083 247.011 262.896C245.446 262.586 243.925 262.008 242.596 261.145C239.901 259.458 237.797 257.053 236.055 254.512C232.583 249.377 230.328 243.678 228.351 238.074C227.369 235.262 226.491 232.446 225.618 229.661C224.721 226.885 223.952 224.094 222.634 221.579C221.328 219.073 219.675 216.747 217.548 214.977C216.514 214.058 215.331 213.345 214.139 212.686C212.911 212.093 211.655 211.561 210.345 211.219C207.745 210.471 205.045 210.232 202.409 210.237C199.775 210.269 197.17 210.682 194.765 211.571C189.916 213.318 186.065 216.849 183.429 220.865C180.766 224.911 179.3 229.41 177.775 233.645C176.279 237.901 174.844 241.986 173.474 245.885C172.071 249.774 170.699 253.468 169.18 256.879C168.386 258.563 167.64 260.239 166.5 261.625C165.352 262.973 164.035 264.102 162.632 264.978C159.826 266.747 156.81 267.653 154.013 268.007C152.612 268.191 151.25 268.206 149.971 268.191C148.688 268.187 147.468 268.183 146.312 268.179C141.698 268.158 138.113 268.141 135.666 268.13C134.458 268.119 133.534 268.11 132.897 268.104C132.266 268.096 131.947 268.078 131.947 268.078Z" fill="#86C8C7"/>
<path d="M224.957 179.58H170.99C170.144 179.58 169.459 180.266 169.459 181.112V199.68C169.459 200.526 170.145 201.212 170.99 201.212H198.308C198.742 201.212 199.151 201.392 199.442 201.714C200.296 202.66 201.441 203.893 202.283 204.795C202.894 205.45 203.934 205.442 204.536 204.779L207.317 201.714C207.607 201.394 208.019 201.212 208.451 201.212H224.957C225.803 201.212 226.488 200.526 226.488 199.68V181.112C226.489 180.265 225.803 179.58 224.957 179.58Z" fill="#86C8C7"/>
<path d="M165.782 232.455H120.789C120.286 232.455 119.878 232.863 119.878 233.366V244.411C119.878 244.914 120.286 245.322 120.789 245.322H137.039C137.297 245.322 137.541 245.429 137.713 245.621C138.221 246.184 138.902 246.917 139.403 247.454C139.767 247.844 140.385 247.839 140.743 247.444L142.397 245.621C142.57 245.431 142.815 245.322 143.072 245.322H165.782C166.285 245.322 166.693 244.914 166.693 244.411V233.366C166.693 232.863 166.285 232.455 165.782 232.455Z" fill="#F5F5F5"/>
<path d="M205.23 209.831C205.23 210.992 204.289 211.933 203.128 211.933C201.967 211.933 201.026 210.992 201.026 209.831C201.026 208.67 201.967 207.729 203.128 207.729C204.289 207.729 205.23 208.67 205.23 209.831Z" fill="#86C8C7"/>
<path d="M203.129 211.957C201.957 211.957 201.002 211.003 201.002 209.831C201.002 208.659 201.956 207.705 203.129 207.705C204.301 207.705 205.255 208.659 205.255 209.831C205.255 211.003 204.301 211.957 203.129 211.957ZM203.129 207.754C201.984 207.754 201.052 208.686 201.052 209.831C201.052 210.976 201.984 211.908 203.129 211.908C204.274 211.908 205.206 210.976 205.206 209.831C205.206 208.686 204.274 207.754 203.129 207.754Z" fill="#263238"/>
<path d="M183.525 193.872V194.9H182.606V193.899C181.697 193.844 180.824 193.559 180.319 193.164L180.824 192.043C181.284 192.383 181.945 192.631 182.606 192.695V191.161C181.586 190.913 180.448 190.573 180.448 189.26C180.448 188.286 181.155 187.45 182.606 187.285V186.265H183.525V187.266C184.213 187.321 184.884 187.505 185.389 187.827L184.93 188.957C184.461 188.69 183.984 188.534 183.525 188.479V190.041C184.545 190.28 185.665 190.62 185.665 191.914C185.664 192.871 184.966 193.697 183.525 193.872ZM182.606 189.811V188.507C182.12 188.617 181.926 188.883 181.926 189.187C181.926 189.509 182.201 189.683 182.606 189.811ZM184.186 192.025C184.186 191.704 183.919 191.529 183.525 191.391V192.659C183.983 192.558 184.186 192.319 184.186 192.025Z" fill="white"/>
<path d="M188.668 187.367V193.797H187.18V188.561H185.894V187.367H188.668Z" fill="white"/>
<path d="M194.647 191.776C194.647 192.915 193.811 193.907 191.974 193.907C191.082 193.907 190.146 193.659 189.521 193.218L190.109 192.079C190.596 192.447 191.266 192.658 191.937 192.658C192.681 192.658 193.14 192.346 193.14 191.822C193.14 191.317 192.809 190.986 191.643 190.986H189.998L190.329 187.367H194.251V188.561H191.569L191.467 189.783H191.99C193.893 189.783 194.647 190.637 194.647 191.776Z" fill="white"/>
<path d="M196.987 192.972C196.987 193.211 196.95 193.385 196.739 193.891L196.215 195.214H195.306L195.71 193.754C195.407 193.634 195.214 193.35 195.214 192.973C195.214 192.44 195.6 192.091 196.106 192.091C196.619 192.09 196.987 192.448 196.987 192.972Z" fill="white"/>
<path d="M197.538 190.583C197.538 188.461 198.714 187.257 200.294 187.257C201.883 187.257 203.05 188.461 203.05 190.583C203.05 192.705 201.883 193.908 200.294 193.908C198.714 193.909 197.538 192.705 197.538 190.583ZM201.552 190.583C201.552 189.122 201.038 188.516 200.294 188.516C199.559 188.516 199.044 189.122 199.044 190.583C199.044 192.043 199.559 192.649 200.294 192.649C201.038 192.65 201.552 192.044 201.552 190.583Z" fill="white"/>
<path d="M203.774 190.583C203.774 188.461 204.95 187.257 206.53 187.257C208.119 187.257 209.286 188.461 209.286 190.583C209.286 192.705 208.119 193.908 206.53 193.908C204.949 193.909 203.774 192.705 203.774 190.583ZM207.787 190.583C207.787 189.122 207.273 188.516 206.529 188.516C205.794 188.516 205.279 189.122 205.279 190.583C205.279 192.043 205.794 192.649 206.529 192.649C207.274 192.65 207.787 192.044 207.787 190.583Z" fill="white"/>
<path d="M210.01 190.583C210.01 188.461 211.186 187.257 212.766 187.257C214.355 187.257 215.522 188.461 215.522 190.583C215.522 192.705 214.355 193.908 212.766 193.908C211.186 193.909 210.01 192.705 210.01 190.583ZM214.024 190.583C214.024 189.122 213.51 188.516 212.766 188.516C212.031 188.516 211.516 189.122 211.516 190.583C211.516 192.043 212.031 192.649 212.766 192.649C213.51 192.65 214.024 192.044 214.024 190.583Z" fill="white"/>
<path d="M415.286 60.1642H84.7139V47.5042C84.7139 44.2072 87.3869 41.5342 90.6839 41.5342H409.315C412.612 41.5342 415.285 44.2072 415.285 47.5042V60.1642H415.286Z" fill="#263238"/>
<path d="M96.6923 53.7635C98.1636 53.7635 99.3563 52.5708 99.3563 51.0995C99.3563 49.6283 98.1636 48.4355 96.6923 48.4355C95.221 48.4355 94.0283 49.6283 94.0283 51.0995C94.0283 52.5708 95.221 53.7635 96.6923 53.7635Z" fill="#F5F5F5"/>
<path d="M104.98 53.7635C106.452 53.7635 107.644 52.5708 107.644 51.0995C107.644 49.6283 106.452 48.4355 104.98 48.4355C103.509 48.4355 102.316 49.6283 102.316 51.0995C102.316 52.5708 103.509 53.7635 104.98 53.7635Z" fill="#F5F5F5"/>
<path d="M113.268 53.7635C114.74 53.7635 115.932 52.5708 115.932 51.0995C115.932 49.6283 114.74 48.4355 113.268 48.4355C111.797 48.4355 110.604 49.6283 110.604 51.0995C110.604 52.5708 111.797 53.7635 113.268 53.7635Z" fill="#F5F5F5"/>
<path d="M440.863 453.359C450.168 453.436 458.217 446.889 460.016 437.759C463.197 421.615 467.291 399.036 467.42 373.681C467.499 358.132 464.023 338.438 459.212 323.651C452.185 302.051 437.149 283.024 415.306 276.789C386.938 268.692 376.671 271.8 356.555 282.349C334.673 293.824 328.751 315.35 305.974 324.926C283.859 334.223 257.191 331.049 237.031 344.051C219.298 355.487 210.65 377.461 209.946 398.55C209.5 411.926 210.71 421.505 213.185 431.885C215.93 443.395 226.32 453.263 238.153 453.361L440.863 453.359Z" fill="#86C8C6"/>
<g opacity="0.4">
<path d="M440.863 453.359C450.168 453.436 458.217 446.889 460.016 437.759C463.197 421.615 467.291 399.036 467.42 373.681C467.499 358.132 464.023 338.438 459.212 323.651C452.185 302.051 437.149 283.024 415.306 276.789C386.938 268.692 376.671 271.8 356.555 282.349C334.673 293.824 328.751 315.35 305.974 324.926C283.859 334.223 257.191 331.049 237.031 344.051C219.298 355.487 210.65 377.461 209.946 398.55C209.5 411.926 210.71 421.505 213.185 431.885C215.93 443.395 226.32 453.263 238.153 453.361L440.863 453.359Z" fill="black"/>
</g>
<path d="M426.278 280.642C426.287 280.638 426.359 280.774 426.492 281.045C426.634 281.342 426.824 281.742 427.068 282.253C427.576 283.349 428.302 284.917 429.232 286.923C429.699 287.942 430.217 289.071 430.783 290.305C431.337 291.547 431.824 292.944 432.41 294.419C432.982 295.902 433.592 297.486 434.24 299.166C434.928 300.832 435.495 302.65 436.096 304.557C436.703 306.462 437.339 308.458 438.002 310.537C438.357 311.57 438.627 312.65 438.906 313.75C439.189 314.849 439.477 315.967 439.77 317.105C440.063 318.244 440.361 319.402 440.664 320.578C440.815 321.166 440.968 321.759 441.121 322.357C441.245 322.961 441.369 323.57 441.495 324.184C441.987 326.64 442.493 329.168 443.012 331.76C444.824 342.174 446.155 353.748 446.516 365.949C446.801 378.156 446.181 389.781 445.164 400.303C444.53 405.551 444.02 410.55 443.216 415.183C442.842 417.503 442.527 419.752 442.138 421.898C441.725 424.039 441.327 426.095 440.948 428.058C440.242 431.993 439.37 435.503 438.67 438.599C438.311 440.143 437.976 441.581 437.668 442.907C437.319 444.218 437 445.418 436.711 446.501C436.134 448.634 435.684 450.302 435.369 451.468C435.215 452.012 435.095 452.439 435.006 452.756C434.921 453.045 434.873 453.192 434.863 453.189C434.853 453.186 434.883 453.034 434.949 452.74C435.025 452.42 435.126 451.988 435.256 451.438C435.546 450.266 435.961 448.59 436.492 446.446C436.765 445.361 437.068 444.158 437.399 442.843C437.693 441.515 438.011 440.074 438.353 438.528C439.022 435.428 439.865 431.916 440.545 427.981C440.912 426.019 441.296 423.964 441.696 421.823C442.073 419.678 442.375 417.431 442.739 415.113C443.521 410.484 444.013 405.491 444.631 400.251C445.617 389.746 446.22 378.146 445.935 365.967C445.575 353.794 444.263 342.25 442.485 331.857C441.975 329.27 441.478 326.747 440.995 324.295C440.872 323.683 440.75 323.075 440.629 322.471C440.478 321.874 440.328 321.282 440.18 320.695C439.883 319.52 439.591 318.364 439.303 317.227C439.016 316.09 438.734 314.973 438.456 313.875C438.183 312.777 437.92 311.697 437.571 310.665C436.922 308.587 436.3 306.592 435.705 304.687C435.118 302.78 434.566 300.962 433.892 299.294C433.261 297.612 432.665 296.026 432.108 294.541C431.538 293.062 431.066 291.662 430.528 290.415C429.98 289.176 429.478 288.041 429.025 287.018C428.139 284.995 427.447 283.413 426.962 282.307C426.741 281.786 426.567 281.378 426.439 281.075C426.323 280.791 426.269 280.646 426.278 280.642Z" fill="#263238"/>
<path d="M239.864 453.205L220.94 482.829L183.963 459.473C186.41 456.078 210.02 461.069 210.02 461.069L221.366 441.591L239.864 453.205Z" fill="#455A64"/>
<g opacity="0.6">
<path d="M222.465 466.687C223.057 467.335 223.043 468.452 222.421 469.07C221.798 469.688 220.662 469.684 220.059 469.047C219.456 468.41 219.431 467.068 220.119 466.524C220.807 465.979 222.141 466.057 222.574 466.821" fill="white"/>
</g>
<g opacity="0.6">
<path d="M220.94 482.829L222.731 479.769L186.608 458.52C186.608 458.52 184.509 458.197 183.963 459.473L220.94 482.829Z" fill="white"/>
</g>
<path d="M209.539 460.501C209.431 460.685 210.282 461.337 210.804 462.479C211.356 463.607 211.32 464.678 211.531 464.712C211.72 464.782 212.132 463.533 211.476 462.161C210.832 460.784 209.604 460.31 209.539 460.501Z" fill="#263238"/>
<path d="M204.647 459.656C204.495 459.805 205.083 460.606 205.214 461.757C205.379 462.904 205.012 463.828 205.197 463.933C205.349 464.069 206.142 463.09 205.952 461.662C205.774 460.233 204.76 459.486 204.647 459.656Z" fill="#263238"/>
<path d="M199.512 462.906C199.652 463.048 200.473 462.305 200.634 461.023C200.804 459.742 200.199 458.814 200.028 458.916C199.832 459 200.045 459.877 199.897 460.927C199.773 461.981 199.344 462.776 199.512 462.906Z" fill="#263238"/>
<path d="M212.617 456.349C212.589 456.561 213.574 456.836 214.551 457.549C215.542 458.243 216.12 459.087 216.312 458.992C216.499 458.927 216.146 457.769 214.983 456.945C213.828 456.112 212.618 456.152 212.617 456.349Z" fill="#263238"/>
<path d="M216.269 452.517C216.22 452.59 216.863 453.153 218.127 453.677C218.756 453.937 219.542 454.174 220.44 454.306C220.889 454.371 221.365 454.41 221.86 454.413C222.099 454.411 222.371 454.428 222.694 454.331C223.013 454.269 223.429 453.862 223.383 453.423C223.373 453.019 223.116 452.685 222.853 452.51C222.586 452.329 222.33 452.244 222.098 452.167C221.623 452.007 221.151 451.9 220.697 451.835C219.788 451.71 218.957 451.754 218.282 451.877C216.922 452.129 216.203 452.619 216.243 452.693C216.287 452.804 217.062 452.503 218.349 452.398C218.99 452.347 219.76 452.361 220.589 452.511C221.003 452.588 221.431 452.7 221.859 452.855C222.316 453 222.651 453.208 222.641 453.446C222.636 453.536 222.624 453.564 222.469 453.627C222.318 453.679 222.094 453.683 221.857 453.685C221.395 453.692 220.949 453.67 220.526 453.627C219.679 453.54 218.924 453.368 218.302 453.181C217.056 452.809 216.327 452.418 216.269 452.517Z" fill="#263238"/>
<path d="M216.34 452.926C216.386 452.994 217.153 452.573 217.958 451.446C218.355 450.885 218.739 450.144 218.986 449.259C219.107 448.816 219.192 448.338 219.224 447.837C219.238 447.335 219.283 446.678 218.633 446.156C218.276 445.911 217.791 446.005 217.533 446.184C217.253 446.357 217.093 446.556 216.914 446.743C216.573 447.132 216.314 447.561 216.125 447.99C215.744 448.851 215.653 449.709 215.708 450.402C215.825 451.817 216.443 452.508 216.496 452.457C216.614 452.405 216.204 451.658 216.233 450.388C216.247 449.762 216.383 449.01 216.746 448.278C216.926 447.912 217.161 447.553 217.456 447.229C217.762 446.872 218.11 446.649 218.232 446.782C218.418 446.895 218.543 447.389 218.497 447.798C218.477 448.25 218.414 448.684 218.322 449.092C218.132 449.907 217.829 450.61 217.513 451.167C216.879 452.282 216.26 452.836 216.34 452.926Z" fill="#263238"/>
<path d="M266.335 360.973L254.999 394.248L213.528 380.356C215.098 376.476 239.217 375.709 239.217 375.709L245.606 354.091L266.335 360.973Z" fill="#455A64"/>
<g opacity="0.6">
<path d="M252.642 378.207C253.371 378.695 253.623 379.784 253.165 380.532C252.707 381.281 251.603 381.547 250.865 381.071C250.128 380.596 249.785 379.297 250.323 378.605C250.862 377.912 252.176 377.671 252.778 378.309" fill="white"/>
</g>
<g opacity="0.6">
<path d="M254.998 394.247L256.01 390.849L215.87 378.8C215.87 378.8 213.755 378.985 213.528 380.355L254.998 394.247Z" fill="white"/>
</g>
<path d="M238.615 375.272C238.554 375.477 239.535 375.908 240.314 376.893C241.118 377.858 241.338 378.907 241.551 378.889C241.751 378.912 241.855 377.6 240.891 376.424C239.938 375.24 238.633 375.072 238.615 375.272Z" fill="#263238"/>
<path d="M233.662 375.614C233.55 375.795 234.312 376.433 234.712 377.52C235.145 378.595 235.008 379.579 235.213 379.638C235.393 379.734 235.93 378.594 235.406 377.253C234.894 375.906 233.731 375.422 233.662 375.614Z" fill="#263238"/>
<path d="M229.448 379.992C229.618 380.097 230.238 379.179 230.09 377.896C229.951 376.611 229.142 375.854 229 375.994C228.83 376.122 229.245 376.923 229.351 377.979C229.481 379.032 229.253 379.905 229.448 379.992Z" fill="#263238"/>
<path d="M240.618 370.507C240.641 370.72 241.664 370.752 242.782 371.213C243.91 371.651 244.672 372.334 244.836 372.196C245.002 372.089 244.384 371.048 243.059 370.523C241.738 369.988 240.572 370.315 240.618 370.507Z" fill="#263238"/>
<path d="M243.254 365.916C243.224 365.999 243.982 366.392 245.335 366.601C246.008 366.704 246.828 366.747 247.731 366.661C248.182 366.618 248.654 366.543 249.136 366.428C249.368 366.369 249.636 366.321 249.927 366.15C250.222 366.014 250.53 365.52 250.381 365.104C250.275 364.714 249.946 364.451 249.649 364.344C249.347 364.232 249.078 364.21 248.834 364.191C248.335 364.148 247.85 364.156 247.394 364.202C246.481 364.297 245.685 364.537 245.058 364.818C243.797 365.386 243.216 366.033 243.272 366.095C243.341 366.192 244.022 365.715 245.247 365.308C245.858 365.106 246.608 364.936 247.449 364.885C247.869 364.862 248.311 364.868 248.765 364.917C249.243 364.949 249.618 365.071 249.665 365.304C249.681 365.392 249.676 365.424 249.542 365.521C249.407 365.608 249.19 365.664 248.961 365.723C248.514 365.839 248.075 365.924 247.654 365.982C246.81 366.099 246.037 366.112 245.388 366.079C244.088 366.012 243.287 365.805 243.254 365.916Z" fill="#263238"/>
<path d="M243.42 366.296C243.481 366.351 244.126 365.76 244.64 364.474C244.892 363.835 245.089 363.024 245.119 362.105C245.131 361.646 245.1 361.161 245.012 360.667C244.906 360.176 244.794 359.528 244.038 359.175C243.633 359.022 243.184 359.228 242.976 359.464C242.745 359.698 242.637 359.93 242.508 360.154C242.269 360.613 242.12 361.091 242.038 361.552C241.873 362.479 241.988 363.334 242.206 363.995C242.657 365.341 243.421 365.866 243.46 365.804C243.562 365.725 242.987 365.098 242.713 363.857C242.578 363.246 242.531 362.483 242.71 361.685C242.798 361.287 242.94 360.882 243.15 360.498C243.363 360.079 243.647 359.779 243.797 359.879C244.004 359.945 244.244 360.394 244.296 360.803C244.384 361.246 244.426 361.683 244.433 362.101C244.442 362.937 244.315 363.693 244.141 364.308C243.79 365.543 243.32 366.228 243.42 366.296Z" fill="#263238"/>
<path d="M335.037 351.48C335.037 351.48 303.828 301.393 295.265 287.513C285.348 271.44 265.013 273.487 260.125 287.99C261.224 284.73 256.332 299.087 239.863 352.717L267.604 360.661L281.101 333.03L292.535 365.751L335.037 351.48Z" fill="#263238"/>
<path d="M340.907 348.857H283.544C274.425 348.857 265.846 352.789 259.906 359.484C257.898 361.748 256.476 364.47 255.585 367.362L213.607 445.722L240.443 460.539L290.583 388.962L318.611 389.295L380.964 350.37L340.907 348.857Z" fill="#263238"/>
<path d="M283.941 373.679C283.993 373.642 284.595 374.361 285.414 375.634C286.234 376.905 287.244 378.747 288.105 380.894C288.962 383.044 289.501 385.075 289.783 386.56C290.067 388.047 290.127 388.982 290.064 388.992C289.901 389.023 289.334 385.327 287.621 381.087C285.94 376.838 283.802 373.77 283.941 373.679Z" fill="#455A64"/>
<path d="M224.672 302.942L248.027 348.858H321.687L318.706 342.858L297.366 342.224L279.982 303.517C278.895 301.097 276.489 299.54 273.836 299.54H226.76C225.012 299.539 223.88 301.384 224.672 302.942Z" fill="#E0E0E0"/>
<path d="M262.356 323.255C262.356 324.918 261.008 326.267 259.344 326.267C257.68 326.267 256.332 324.919 256.332 323.255C256.332 321.591 257.68 320.243 259.344 320.243C261.008 320.243 262.356 321.592 262.356 323.255Z" fill="#263238"/>
<path d="M330.9 295.671L319.543 334.531L277.506 339.039V346.501L339.273 347.354L347.683 296.751L330.9 295.671Z" fill="#FFBE9D"/>
<path d="M411.67 270.186C409.219 259.105 392.665 254.885 385.206 254.869C374.798 254.847 375.74 254.21 365.511 256.051L364.162 256.008C333.058 254.745 329.481 297.466 329.481 297.466L343.658 298.623L339.915 328.053L329.057 348.884L388.786 348.786L392.131 300.157L417.14 299.501C417.14 299.501 414.15 281.405 411.67 270.186Z" fill="#86C8C6"/>
<path d="M345.378 279.423C345.537 279.441 344.487 289.813 343.033 302.587C341.578 315.365 340.269 325.705 340.11 325.687C339.951 325.669 341.001 315.299 342.456 302.521C343.91 289.747 345.219 279.405 345.378 279.423Z" fill="#263238"/>
<g opacity="0.2">
<path d="M391.029 279.425C388.482 291.6 385.161 304.114 382.614 316.289C382.073 318.877 381.492 321.555 379.911 323.674C378.923 324.998 377.599 326.026 376.278 327.017C371.258 330.784 365.965 334.311 360.067 336.461C368.586 335.741 377.041 334.27 385.303 332.069C386.702 331.696 388.191 331.242 389.093 330.11C389.891 329.109 390.077 327.766 390.227 326.495C392.06 310.883 391.53 295.135 391.029 279.425Z" fill="black"/>
</g>
<path d="M308.504 333.602L327.022 331.376L340.07 339.932L389.968 327.972L391.429 300.126L413.826 299.575L413.304 332.252C413.082 342.773 404.338 351.102 393.818 350.81L320.735 348.786L317.633 342.567L301.953 342.101L308.504 333.602Z" fill="#FFBE9D"/>
<path d="M389.969 327.972C389.974 327.992 389.651 328.089 389.031 328.257C388.361 328.431 387.455 328.667 386.315 328.964C383.897 329.566 380.49 330.415 376.302 331.459C367.788 333.522 356.113 336.351 343.216 339.477C342.181 339.725 341.153 339.971 340.138 340.214L340.016 340.243L339.911 340.174C335.297 337.139 330.903 334.249 326.875 331.599L327.053 331.641C319.727 332.487 313.382 333.22 308.524 333.782L308.646 333.713C306.575 336.342 304.924 338.439 303.754 339.924C303.202 340.608 302.764 341.15 302.434 341.559C302.13 341.927 301.966 342.112 301.952 342.101C301.938 342.091 302.076 341.885 302.354 341.497C302.665 341.074 303.078 340.513 303.599 339.804C304.737 338.294 306.344 336.163 308.359 333.491L308.404 333.431L308.481 333.421C313.334 332.815 319.671 332.024 326.989 331.11L327.085 331.098L327.167 331.152C331.203 333.79 335.605 336.668 340.227 339.689L340.001 339.65C341.016 339.407 342.044 339.16 343.079 338.912C355.991 335.851 367.68 333.081 376.205 331.06C380.411 330.092 383.833 329.304 386.261 328.745C387.412 328.493 388.326 328.292 389.002 328.144C389.632 328.012 389.965 327.953 389.969 327.972Z" fill="#EB996E"/>
<path d="M319.253 338.91C319.253 339.07 316.032 339.2 312.06 339.2C311.61 339.198 311.172 339.197 310.744 339.195L310.929 339.127C308.363 341.275 306.358 342.824 306.266 342.716C306.174 342.608 308.026 340.878 310.559 338.692L310.637 338.624H310.744C311.172 338.622 311.61 338.621 312.06 338.619C316.033 338.619 319.253 338.75 319.253 338.91Z" fill="#EB996E"/>
<path d="M398.691 332.629C398.538 332.723 397.577 330.384 395.056 328.834C392.568 327.23 390.043 327.377 390.062 327.198C390.055 327.133 390.667 326.99 391.672 327.072C392.672 327.149 394.053 327.521 395.365 328.343C396.673 329.17 397.606 330.255 398.108 331.123C398.617 331.992 398.753 332.606 398.691 332.629Z" fill="#EB996E"/>
<path d="M417.144 299.728C415.762 299.779 413.921 299.847 411.691 299.929C407.086 300.073 400.723 300.232 393.695 300.372C392.921 300.387 392.155 300.402 391.436 300.416L391.152 300.421L391.141 300.141C390.888 293.616 391.004 287.814 391.127 283.641C391.192 281.555 391.271 279.877 391.342 278.72C391.413 277.564 391.47 276.929 391.508 276.931C391.546 276.932 391.561 277.569 391.557 278.727C391.548 279.978 391.536 281.634 391.521 283.649C391.501 287.817 391.455 293.622 391.72 300.112L391.425 299.838C392.144 299.823 392.91 299.808 393.684 299.792C400.712 299.652 407.076 299.558 411.683 299.519C413.915 299.512 415.757 299.507 417.14 299.503C418.428 299.511 415.141 299.655 417.144 299.728Z" fill="#263238"/>
<path d="M378.658 299.903C378.69 299.92 378.434 300.43 377.944 301.341C377.704 301.799 377.397 302.352 377.001 302.971C376.61 303.593 376.19 304.318 375.647 305.067C374.616 306.604 373.263 308.349 371.65 310.191C370.013 312.011 368.102 313.916 365.94 315.739C363.762 317.544 361.549 319.088 359.467 320.377C357.368 321.638 355.41 322.661 353.715 323.403C352.881 323.804 352.093 324.09 351.412 324.364C350.733 324.644 350.134 324.848 349.641 325.003C348.658 325.324 348.111 325.485 348.1 325.451C348.089 325.417 348.614 325.191 349.571 324.813C350.052 324.629 350.637 324.399 351.302 324.094C351.969 323.795 352.742 323.488 353.56 323.068C355.224 322.288 357.147 321.24 359.215 319.968C361.265 318.668 363.449 317.128 365.606 315.339C367.748 313.533 369.65 311.657 371.293 309.87C372.911 308.061 374.284 306.354 375.346 304.855C375.904 304.124 376.344 303.417 376.756 302.814C377.173 302.213 377.504 301.678 377.77 301.237C378.311 300.363 378.627 299.886 378.658 299.903Z" fill="#263238"/>
<path d="M410.576 268.128C410.575 268.146 410.324 268.149 409.846 268.138C409.318 268.12 408.624 268.096 407.76 268.066C405.89 267.995 403.285 267.897 400.09 267.776C393.614 267.555 384.662 267.378 374.777 267.512C364.889 267.652 355.945 268.077 349.477 268.478C346.287 268.688 343.685 268.858 341.819 268.981C340.955 269.035 340.263 269.078 339.736 269.111C339.259 269.135 339.008 269.139 339.006 269.121C339.004 269.103 339.252 269.064 339.726 269.006C340.251 268.948 340.941 268.873 341.802 268.778C343.605 268.587 346.219 268.356 349.452 268.11C355.918 267.615 364.87 267.131 374.77 266.991C384.666 266.857 393.627 267.092 400.105 267.408C403.344 267.564 405.963 267.723 407.771 267.864C408.634 267.934 409.326 267.991 409.852 268.034C410.328 268.078 410.577 268.11 410.576 268.128Z" fill="#FAFAFA"/>
<path d="M344.116 288.469C344.116 288.613 341.18 288.729 337.559 288.729C333.937 288.729 331.001 288.612 331.001 288.469C331.001 288.326 333.936 288.209 337.559 288.209C341.18 288.209 344.116 288.325 344.116 288.469Z" fill="#FAFAFA"/>
<path d="M390.902 290.731C390.904 290.749 390.744 290.784 390.437 290.834C390.069 290.887 389.625 290.952 389.092 291.029C387.922 291.19 386.226 291.389 384.126 291.607C379.927 292.043 374.111 292.509 367.673 292.762C361.233 293.011 355.397 292.998 351.178 292.89C349.068 292.836 347.361 292.77 346.183 292.7C345.645 292.664 345.197 292.635 344.826 292.61C344.516 292.584 344.354 292.561 344.354 292.543C344.355 292.525 344.518 292.513 344.829 292.505C345.201 292.503 345.649 292.5 346.188 292.497C347.451 292.503 349.137 292.511 351.182 292.521C355.398 292.535 361.223 292.49 367.652 292.241C374.079 291.989 379.889 291.582 384.091 291.24C386.13 291.071 387.81 290.932 389.069 290.828C389.607 290.789 390.054 290.757 390.424 290.73C390.736 290.713 390.9 290.713 390.902 290.731Z" fill="#FAFAFA"/>
<path d="M414.952 286.641C414.965 286.784 409.633 287.377 403.045 287.965C396.454 288.553 391.103 288.914 391.09 288.77C391.077 288.627 396.408 288.034 402.998 287.446C409.587 286.858 414.939 286.498 414.952 286.641Z" fill="#FAFAFA"/>
<path d="M363.094 317.08C363.096 317.149 361.894 317.257 359.947 317.334C358 317.411 355.307 317.446 352.334 317.376C349.36 317.305 346.671 317.141 344.73 316.972C342.789 316.803 341.593 316.638 341.599 316.569C341.605 316.495 342.809 316.53 344.753 316.605C346.697 316.68 349.38 316.785 352.346 316.856C355.311 316.926 357.996 316.949 359.941 316.967C361.887 316.984 363.092 317.006 363.094 317.08Z" fill="#FAFAFA"/>
<path d="M390.563 317.939C390.568 317.975 390.166 318.06 389.433 318.185C388.701 318.312 387.638 318.464 386.321 318.627C383.687 318.955 380.031 319.29 375.982 319.449C371.931 319.605 368.26 319.554 365.608 319.431C364.282 319.371 363.21 319.301 362.471 319.232C361.732 319.165 361.324 319.111 361.326 319.075C361.328 319.039 361.739 319.025 362.481 319.03C363.333 319.039 364.381 319.05 365.619 319.064C368.267 319.092 371.925 319.085 375.962 318.929C379.997 318.771 383.645 318.494 386.283 318.261C387.516 318.152 388.56 318.059 389.409 317.984C390.147 317.921 390.559 317.903 390.563 317.939Z" fill="#FAFAFA"/>
<path d="M347.223 337.078C347.205 337.209 344.826 336.906 342.105 335.799C339.377 334.705 337.456 333.27 337.534 333.164C337.617 333.033 339.628 334.246 342.3 335.316C344.965 336.401 347.254 336.926 347.223 337.078Z" fill="#FAFAFA"/>
<path d="M372.16 200.777L371.21 200.779C361.651 200.798 353.71 207.96 352.962 217.239C352.266 225.87 351.61 235.413 351.678 240.042C351.82 249.627 361.668 251.098 361.668 251.098L361.305 259.615C361.089 265.974 365.985 271.344 372.336 271.716C378.849 272.097 384.42 267.089 384.732 260.573L386.774 220.078C387.634 210.124 382.403 201.339 372.16 200.777Z" fill="#FFBE9D"/>
<path d="M361.587 251.085C361.587 251.085 367.874 251.441 374.477 247.384C374.477 247.384 371.458 254.288 361.634 253.445L361.587 251.085Z" fill="#EB996E"/>
<path d="M356.452 223.191C356.427 223.914 357.035 224.53 357.81 224.569C358.583 224.608 359.232 224.055 359.256 223.332C359.281 222.609 358.673 221.992 357.899 221.953C357.125 221.914 356.477 222.468 356.452 223.191Z" fill="#263238"/>
<path d="M355.088 221.926C355.263 222.104 356.326 221.334 357.839 221.335C359.35 221.315 360.462 222.07 360.625 221.89C360.706 221.81 360.527 221.488 360.043 221.146C359.566 220.806 358.754 220.475 357.812 220.481C356.87 220.488 356.078 220.827 355.623 221.174C355.159 221.522 355.002 221.846 355.088 221.926Z" fill="#263238"/>
<path d="M370.575 223.639C370.55 224.362 371.159 224.978 371.934 225.017C372.707 225.056 373.356 224.503 373.38 223.78C373.405 223.057 372.796 222.44 372.023 222.401C371.247 222.362 370.599 222.916 370.575 223.639Z" fill="#263238"/>
<path d="M369.21 222.17C369.385 222.348 370.45 221.579 371.961 221.58C373.472 221.56 374.584 222.315 374.748 222.135C374.828 222.055 374.652 221.733 374.166 221.392C373.689 221.051 372.877 220.721 371.935 220.727C370.993 220.734 370.201 221.073 369.746 221.42C369.282 221.768 369.125 222.091 369.21 222.17Z" fill="#263238"/>
<path d="M364.49 233.105C364.497 233.021 363.556 232.865 362.032 232.678C361.646 232.64 361.28 232.566 361.214 232.309C361.122 232.037 361.283 231.632 361.469 231.193C361.83 230.282 362.208 229.327 362.605 228.327C364.183 224.246 365.324 220.891 365.155 220.83C364.985 220.77 363.569 224.028 361.992 228.109C361.612 229.115 361.249 230.075 360.904 230.992C360.759 231.42 360.508 231.905 360.707 232.469C360.811 232.75 361.095 232.953 361.343 233.018C361.591 233.091 361.808 233.095 361.999 233.106C363.534 233.184 364.485 233.189 364.49 233.105Z" fill="#263238"/>
<path d="M368.944 234.114C368.698 234.101 368.698 235.699 367.295 236.837C365.894 237.978 364.144 237.802 364.131 238.026C364.109 238.126 364.522 238.336 365.26 238.354C365.985 238.377 367.042 238.148 367.901 237.452C368.757 236.754 369.124 235.825 369.178 235.169C369.241 234.5 369.057 234.105 368.944 234.114Z" fill="#263238"/>
<path d="M369.554 216.398C369.704 216.798 371.214 216.605 372.989 216.81C374.768 216.98 376.201 217.483 376.435 217.124C376.54 216.952 376.289 216.576 375.71 216.189C375.136 215.803 374.22 215.437 373.154 215.323C372.088 215.212 371.113 215.378 370.467 215.636C369.817 215.893 369.49 216.208 369.554 216.398Z" fill="#263238"/>
<path d="M355.635 217.66C355.902 217.994 356.943 217.645 358.196 217.626C359.448 217.564 360.51 217.846 360.754 217.496C360.861 217.326 360.693 216.991 360.229 216.675C359.772 216.36 359.007 216.104 358.146 216.131C357.285 216.159 356.54 216.464 356.104 216.808C355.662 217.153 355.517 217.497 355.635 217.66Z" fill="#263238"/>
<path d="M385.301 227.177C385.469 227.106 392.06 225.216 391.859 231.769C391.658 238.322 384.943 236.774 384.937 236.586C384.931 236.397 385.301 227.177 385.301 227.177Z" fill="#FFBE9D"/>
<path d="M386.477 234.162C386.507 234.142 386.592 234.245 386.787 234.34C386.977 234.432 387.308 234.501 387.663 234.383C388.382 234.15 389.014 233.068 389.083 231.888C389.118 231.292 389.007 230.72 388.805 230.244C388.614 229.758 388.306 229.414 387.95 229.342C387.596 229.252 387.337 229.453 387.248 229.635C387.152 229.815 387.191 229.948 387.155 229.958C387.136 229.974 387.014 229.844 387.076 229.575C387.108 229.446 387.191 229.293 387.353 229.172C387.518 229.049 387.758 228.99 388.006 229.024C388.524 229.074 388.977 229.553 389.2 230.076C389.451 230.602 389.59 231.245 389.55 231.915C389.466 233.234 388.734 234.45 387.753 234.695C387.276 234.801 386.885 234.651 386.686 234.49C386.484 234.321 386.453 234.173 386.477 234.162Z" fill="#EB996E"/>
<path d="M380.89 207.696L352.826 208.298C353.698 206.413 355.257 204.903 356.949 203.654C360.596 200.961 365.08 199.279 369.656 199.201C374.233 199.123 383.55 204.551 386.865 207.625C389.518 210.084 389.501 212.212 389.501 212.212C389.922 215.755 387.886 219.783 387.076 223.261C386.658 225.055 385.852 230.483 385.852 230.483H385.851C384.305 230.478 383.73 229.279 383.965 227.791L384.254 221.951C384.254 221.951 378.995 218.312 381.487 211.651C381.889 211.121 382.742 208.688 380.89 207.696Z" fill="#263238"/>
<path d="M374.996 228.422C375.086 228.439 375.176 228.376 375.195 228.279C375.214 228.183 375.157 228.091 375.067 228.073C374.977 228.056 374.888 228.12 374.868 228.216C374.849 228.312 374.906 228.404 374.996 228.422Z" fill="#EB996E"/>
<path d="M372.104 227.789C372.194 227.806 372.286 227.731 372.308 227.621C372.33 227.511 372.275 227.407 372.185 227.39C372.095 227.373 372.003 227.448 371.981 227.559C371.959 227.668 372.014 227.772 372.104 227.789Z" fill="#EB996E"/>
<path d="M370.159 227.746C370.25 227.757 370.339 227.648 370.358 227.502C370.377 227.356 370.318 227.229 370.226 227.218C370.135 227.207 370.045 227.316 370.027 227.462C370.008 227.608 370.067 227.735 370.159 227.746Z" fill="#EB996E"/>
<path d="M373.579 230.191C373.671 230.191 373.746 230.144 373.746 230.087C373.746 230.03 373.671 229.983 373.579 229.983C373.487 229.983 373.412 230.03 373.412 230.087C373.412 230.145 373.487 230.191 373.579 230.191Z" fill="#EB996E"/>
<path d="M370.927 229.598C371.019 229.606 371.1 229.53 371.109 229.428C371.118 229.326 371.051 229.238 370.959 229.23C370.867 229.222 370.786 229.298 370.777 229.4C370.768 229.501 370.836 229.59 370.927 229.598Z" fill="#EB996E"/>
<path d="M357.13 228.022C357.22 228.039 357.31 227.973 357.33 227.874C357.35 227.775 357.293 227.68 357.203 227.663C357.113 227.646 357.023 227.712 357.003 227.811C356.983 227.91 357.04 228.004 357.13 228.022Z" fill="#EB996E"/>
<path d="M355.16 227.85C355.252 227.858 355.335 227.774 355.346 227.662C355.357 227.549 355.292 227.451 355.2 227.443C355.108 227.434 355.025 227.519 355.014 227.631C355.003 227.743 355.069 227.842 355.16 227.85Z" fill="#EB996E"/>
<path d="M358.87 228.066C358.96 228.083 359.046 228.035 359.062 227.958C359.078 227.881 359.017 227.804 358.927 227.787C358.837 227.77 358.751 227.818 358.735 227.895C358.719 227.972 358.779 228.048 358.87 228.066Z" fill="#EB996E"/>
<path d="M357.413 229.987C357.497 230.023 357.6 229.975 357.643 229.88C357.686 229.785 357.652 229.679 357.568 229.643C357.484 229.607 357.381 229.655 357.338 229.75C357.296 229.844 357.329 229.951 357.413 229.987Z" fill="#EB996E"/>
<path d="M355.731 229.663C355.82 229.639 355.875 229.561 355.855 229.488C355.834 229.415 355.746 229.376 355.657 229.399C355.568 229.423 355.513 229.501 355.534 229.574C355.553 229.647 355.642 229.686 355.731 229.663Z" fill="#EB996E"/>
<path d="M387.049 207.999C387.765 205.606 387.052 202.94 385.474 200.976C383.896 199.013 381.318 197.852 378.759 197.955C377.448 198.007 376.146 198.369 374.842 198.23C372.414 197.972 370.541 196.076 368.29 195.156C364.781 193.721 360.317 195.025 358.199 198.104C357.345 199.345 356.785 200.879 355.477 201.66C354.346 202.336 352.921 202.28 351.651 202.652C349.082 203.405 347.322 206.062 347.455 208.672C347.589 211.282 349.466 213.671 351.935 214.693C354.404 215.716 357.346 215.43 359.691 214.16C361.808 213.013 363.704 211.056 366.127 211.125C368.636 211.197 370.828 213.5 373.29 213.023C374.581 212.772 375.575 211.805 376.52 210.913C377.465 210.021 378.552 209.113 379.866 209.037C381.18 208.962 381.864 210.719 381.394 211.916L387.049 207.999Z" fill="#263238"/>
<path d="M353.371 204.83C353.367 204.832 353.382 204.865 353.416 204.926C353.45 204.987 353.499 205.079 353.579 205.19C353.732 205.416 353.984 205.737 354.384 206.08C354.781 206.421 355.334 206.78 356.053 207.021C356.767 207.262 357.66 207.366 358.6 207.169C359.534 206.979 360.521 206.501 361.285 205.681C362.052 204.861 362.507 203.764 363.221 202.801C363.577 202.32 364.022 201.886 364.58 201.604C365.14 201.328 365.786 201.194 366.441 201.205C367.096 201.22 367.759 201.393 368.351 201.706C368.942 202.029 369.43 202.513 369.759 203.116C370.098 203.716 370.341 204.375 370.749 204.96C371.139 205.552 371.82 205.997 372.546 206.025C373.269 206.065 373.937 205.802 374.505 205.474C375.082 205.145 375.56 204.702 375.995 204.273C376.86 203.422 377.715 202.573 378.778 202.343C379.829 202.099 380.858 202.476 381.597 202.988C382.35 203.512 382.834 204.207 383.145 204.855C383.457 205.507 383.62 206.114 383.724 206.612C383.828 207.111 383.877 207.506 383.91 207.772C383.943 208.039 383.959 208.18 383.969 208.18C383.974 208.18 383.976 208.144 383.975 208.075C383.974 208.006 383.973 207.903 383.964 207.768C383.948 207.498 383.916 207.1 383.827 206.593C383.738 206.087 383.588 205.467 383.282 204.794C382.977 204.126 382.487 203.395 381.709 202.837C380.947 202.295 379.868 201.878 378.727 202.13C377.577 202.372 376.684 203.262 375.819 204.101C375.38 204.529 374.924 204.947 374.372 205.258C373.83 205.569 373.203 205.805 372.563 205.767C371.921 205.737 371.337 205.361 370.971 204.812C370.59 204.267 370.347 203.614 369.997 202.99C369.654 202.358 369.114 201.817 368.483 201.478C367.848 201.143 367.144 200.962 366.447 200.947C365.751 200.937 365.062 201.081 364.461 201.381C363.86 201.687 363.384 202.159 363.02 202.659C362.288 203.664 361.847 204.748 361.119 205.536C360.399 206.323 359.457 206.793 358.561 206.987C357.659 207.188 356.799 207.102 356.103 206.882C355.402 206.661 354.854 206.325 354.455 206.003C353.651 205.344 353.401 204.806 353.371 204.83Z" fill="#455A64"/>
<path d="M348.284 204.927C348.272 204.924 348.205 205.107 348.17 205.454C348.134 205.799 348.147 206.312 348.312 206.918C348.481 207.52 348.812 208.212 349.364 208.847C349.913 209.484 350.687 210.035 351.583 210.42C353.398 211.195 355.239 211.125 356.478 210.959C357.106 210.872 357.607 210.762 357.948 210.674C358.29 210.586 358.474 210.521 358.47 210.505C358.46 210.461 357.7 210.646 356.455 210.774C355.224 210.891 353.436 210.925 351.691 210.179C350.829 209.809 350.085 209.287 349.552 208.689C349.015 208.092 348.68 207.439 348.495 206.867C348.129 205.703 348.345 204.927 348.284 204.927Z" fill="#455A64"/>
<path d="M421.489 301.995C421.318 314.86 413.479 326.709 403.253 334.518C393.028 342.327 380.61 346.664 368.246 350.224C355.882 353.784 343.244 356.725 331.613 362.227C315.507 369.847 300.591 380.302 291.493 395.622C282.395 410.942 279.152 431.065 280.171 448.854L416.952 435.177L424.443 357.433L421.489 301.995Z" fill="#86C8C6"/>
<path d="M298.909 384.712C298.923 384.723 298.801 384.915 298.557 385.27C298.277 385.665 297.916 386.174 297.469 386.805C296.989 387.466 296.395 388.269 295.782 389.254C295.168 390.238 294.386 391.304 293.685 392.585C292.954 393.847 292.128 395.214 291.379 396.758C290.563 398.267 289.825 399.943 289.044 401.704C287.555 405.256 286.156 409.264 285.07 413.578C284.01 417.9 283.366 422.097 282.958 425.93C282.783 427.85 282.619 429.676 282.567 431.391C282.459 433.104 282.467 434.702 282.451 436.162C282.411 437.622 282.495 438.941 282.508 440.101C282.521 441.261 282.582 442.259 282.628 443.074C282.663 443.847 282.692 444.47 282.714 444.954C282.728 445.384 282.727 445.611 282.709 445.613C282.691 445.615 282.657 445.391 282.61 444.963C282.563 444.48 282.502 443.858 282.426 443.088C282.349 442.273 282.258 441.276 282.217 440.113C282.176 438.951 282.066 437.629 282.082 436.164C282.074 434.7 282.045 433.095 282.135 431.374C282.168 429.651 282.316 427.815 282.479 425.884C282.863 422.029 283.496 417.803 284.564 413.453C285.657 409.111 287.08 405.08 288.603 401.515C289.401 399.748 290.158 398.068 290.996 396.559C291.766 395.015 292.615 393.651 293.37 392.395C294.095 391.12 294.902 390.063 295.541 389.091C296.18 388.118 296.799 387.329 297.305 386.685C297.785 386.077 298.173 385.586 298.474 385.206C298.746 384.871 298.895 384.701 298.909 384.712Z" fill="#263238"/>
<g opacity="0.4">
<path d="M421.489 301.995C421.318 314.86 413.479 326.709 403.253 334.518C393.028 342.327 380.61 346.664 368.246 350.224C355.882 353.784 343.244 356.725 331.613 362.227C315.507 369.847 300.591 380.302 291.493 395.622C282.395 410.942 279.152 431.065 280.171 448.854L416.952 435.177L424.443 357.433L421.489 301.995Z" fill="black"/>
</g>
<path d="M105.785 359.848C93.9727 347.758 75.4647 342.679 59.1357 347.045C73.3197 356.555 89.2597 361.652 106.336 361.792" fill="#8AC6C1"/>
<path d="M89.9631 303.819C91.9071 290.073 86.5651 274.609 76.2721 264.617C75.9321 278.241 81.6841 293.571 89.9631 303.819Z" fill="#8AC6C1"/>
<path d="M98.1934 329.786C90.8594 315.766 78.8194 304.261 64.4824 297.569C68.7794 313.397 82.3164 326.344 98.3194 329.932" fill="#8AC6C1"/>
<path d="M99.8976 334.796C91.5946 335.029 83.1926 334.737 75.1636 332.612C67.1336 330.487 59.4436 326.404 54.1006 320.044C70.2526 320.062 86.3656 324.981 99.7736 333.987" fill="#8AC6C1"/>
<path d="M95.6836 318.293C99.8976 302.498 106.852 291.572 119.267 282.72C120.206 290.405 118.317 298.405 114.039 304.858C109.761 311.311 103.129 316.166 95.6836 318.293Z" fill="#8AC6C1"/>
<path d="M127.023 345.533C127.241 336.354 121.325 327.335 112.819 323.878C113.509 332.034 119.917 341.47 127.023 345.533Z" fill="#8AC6C1"/>
<path d="M130.99 332.215C131.933 319.021 141.308 306.814 153.812 302.498C150.945 315.697 143.313 326.685 130.99 332.215Z" fill="#8AC6C1"/>
<path d="M125.012 355.849C127.94 351.661 132.718 349.056 137.662 347.762C142.606 346.469 147.771 346.354 152.881 346.247C145.988 353.83 135.639 358.141 125.401 357.692" fill="#8AC6C1"/>
<path d="M119.078 389.517C128.289 386.674 138.554 387.409 147.265 391.536C155.976 395.663 163.048 403.14 166.682 412.068C149.39 408.786 132.326 401.106 119.078 389.517Z" fill="#8AC6C1"/>
<path d="M100.099 377.815C102.972 386.307 102.42 396.57 96.0339 403.889C93.4359 395.176 94.9719 385.325 100.099 377.815Z" fill="#8AC6C1"/>
<path d="M88.883 373.1C88.084 384.018 81.103 394.273 71.239 399.021C70.749 399.257 70.182 399.483 69.679 399.278C68.901 398.961 68.83 397.899 68.926 397.064C70.176 386.185 78.236 375.663 88.883 373.1Z" fill="#8AC6C1"/>
<path d="M81.5552 371.996C76.6972 377.245 69.6142 380.362 62.4622 380.399C55.3112 380.435 48.1962 377.391 43.2852 372.192C55.4502 370.86 69.4862 369.972 81.5552 371.996Z" fill="#8AC6C1"/>
<path d="M79.7342 274.748C79.7272 274.751 79.7642 274.872 79.8462 275.104C79.9372 275.356 80.0602 275.697 80.2172 276.133C80.5612 277.057 81.0542 278.38 81.6842 280.072C82.3392 281.776 83.0942 283.877 83.9692 286.318C84.4092 287.538 84.8802 288.842 85.3782 290.223C85.8582 291.613 86.3652 293.082 86.8972 294.623C89.0522 300.783 91.4452 308.176 94.0292 316.408C96.5652 324.655 99.2302 333.759 101.851 343.364C104.437 352.982 106.729 362.189 108.68 370.595C110.576 379.012 112.206 386.611 113.384 393.03C113.686 394.632 113.974 396.159 114.247 397.604C114.493 399.052 114.725 400.418 114.943 401.697C115.384 404.251 115.761 406.452 116.014 408.259C116.288 410.044 116.502 411.439 116.652 412.413C116.727 412.87 116.786 413.227 116.83 413.492C116.873 413.735 116.898 413.858 116.906 413.857C116.914 413.856 116.904 413.73 116.877 413.485C116.845 413.219 116.801 412.859 116.745 412.4C116.616 411.423 116.43 410.023 116.193 408.232C115.967 406.42 115.616 404.214 115.199 401.654C114.993 400.373 114.772 399.003 114.538 397.552C114.275 396.104 113.998 394.575 113.707 392.969C112.57 386.538 110.972 378.927 109.098 370.499C107.169 362.083 104.887 352.866 102.3 343.242C99.6772 333.631 96.9992 324.525 94.4382 316.28C91.8302 308.051 89.4042 300.663 87.2082 294.514C86.6652 292.976 86.1472 291.51 85.6572 290.123C85.1462 288.745 84.6642 287.445 84.2132 286.228C83.3142 283.795 82.5352 281.702 81.8532 280.008C81.1872 278.328 80.6672 277.016 80.3042 276.099C80.1292 275.67 79.9922 275.335 79.8902 275.087C79.7942 274.86 79.7412 274.745 79.7342 274.748Z" fill="#263238"/>
<path d="M146.552 309.544C146.546 309.539 146.475 309.606 146.342 309.742C146.194 309.898 146.002 310.1 145.76 310.354C145.252 310.895 144.516 311.705 143.597 312.774C141.761 314.91 139.169 318.078 136.435 322.324C133.7 326.557 130.897 331.949 128.946 338.346C126.939 344.724 125.694 351.974 124.454 359.55C121.98 374.718 118.946 388.303 116.749 398.13C115.642 403.019 114.743 406.985 114.114 409.763C113.815 411.115 113.58 412.175 113.413 412.93C113.342 413.273 113.285 413.545 113.242 413.756C113.206 413.943 113.191 414.039 113.199 414.041C113.207 414.043 113.237 413.95 113.288 413.767C113.343 413.559 113.414 413.29 113.504 412.951C113.691 412.202 113.955 411.148 114.29 409.804C114.953 407.034 115.901 403.079 117.069 398.203C119.348 388.394 122.437 374.809 124.913 359.625C126.153 352.046 127.382 344.82 129.355 338.471C131.273 332.105 134.024 326.738 136.712 322.499C139.399 318.249 141.944 315.058 143.735 312.89C144.631 311.805 145.344 310.977 145.829 310.416C146.056 310.149 146.236 309.938 146.376 309.774C146.498 309.628 146.558 309.55 146.552 309.544Z" fill="#263238"/>
<path d="M77.9209 371.48C77.9199 371.496 78.0709 371.523 78.3589 371.56C78.6999 371.598 79.1159 371.644 79.6189 371.699C79.8989 371.726 80.2019 371.756 80.5289 371.788C80.8639 371.838 81.2229 371.892 81.6049 371.95C82.3769 372.064 83.2569 372.178 84.2159 372.39C84.6989 372.486 85.2029 372.586 85.7259 372.691C86.2459 372.823 86.7859 372.959 87.3439 373.101C88.4699 373.355 89.6329 373.768 90.8729 374.142C93.3179 375 95.9509 376.102 98.5749 377.536C101.19 378.989 103.505 380.664 105.481 382.333C106.44 383.201 107.365 384.014 108.131 384.877C108.95 385.689 109.614 386.532 110.228 387.296C110.875 388.036 111.325 388.803 111.78 389.435C112.242 390.065 112.574 390.647 112.843 391.126C113.1 391.561 113.313 391.92 113.488 392.216C113.64 392.463 113.727 392.59 113.742 392.583C113.756 392.576 113.697 392.436 113.572 392.174C113.417 391.866 113.229 391.492 113.001 391.038C112.755 390.543 112.443 389.942 111.998 389.294C111.56 388.643 111.124 387.855 110.488 387.095C109.885 386.311 109.228 385.446 108.412 384.613C107.65 383.73 106.725 382.897 105.762 382.009C103.779 380.302 101.443 378.597 98.7999 377.128C96.1479 375.679 93.4829 374.577 91.0079 373.734C89.7529 373.367 88.5759 372.966 87.4369 372.726C86.8729 372.593 86.3269 372.464 85.8009 372.339C85.2719 372.244 84.7619 372.153 84.2739 372.066C83.3049 371.873 82.4149 371.781 81.6359 371.691C81.2509 371.647 80.8889 371.605 80.5499 371.567C80.2209 371.549 79.9149 371.533 79.6319 371.518C79.1259 371.497 78.7069 371.48 78.3629 371.466C78.0739 371.46 77.9209 371.464 77.9209 371.48Z" fill="#263238"/>
<path d="M74.4561 309.837C74.4351 309.861 74.7481 310.161 75.3321 310.681C75.9921 311.253 76.8321 311.982 77.8351 312.853C79.9621 314.671 82.9221 317.159 86.2091 319.885C89.4981 322.612 92.4911 325.059 94.6721 326.813C95.7141 327.638 96.5851 328.328 97.2701 328.871C97.8901 329.349 98.2421 329.601 98.2621 329.576C98.2821 329.551 97.9681 329.251 97.3831 328.73C96.7231 328.157 95.8831 327.429 94.8791 326.558C92.7521 324.74 89.7931 322.253 86.5071 319.528C83.2211 316.804 80.2301 314.358 78.0491 312.604C77.0071 311.778 76.1351 311.088 75.4501 310.545C74.8301 310.065 74.4771 309.812 74.4561 309.837Z" fill="#263238"/>
<path d="M71.466 325.927C71.43 326.05 77.817 328.046 85.731 330.384C93.648 332.723 100.092 334.519 100.129 334.395C100.165 334.272 93.779 332.277 85.863 329.938C77.948 327.6 71.502 325.804 71.466 325.927Z" fill="#263238"/>
<path d="M95.0505 319.521C95.0785 319.537 95.3115 319.21 95.7095 318.604C96.1595 317.919 96.7225 317.06 97.3935 316.039C98.8215 313.879 100.849 310.931 103.246 307.793C105.647 304.656 107.957 301.923 109.659 299.971C110.464 299.052 111.141 298.279 111.681 297.663C112.158 297.117 112.411 296.804 112.387 296.782C112.364 296.76 112.067 297.03 111.549 297.539C111.029 298.046 110.299 298.801 109.414 299.751C107.645 301.651 105.286 304.361 102.876 307.51C100.469 310.661 98.4765 313.65 97.1165 315.862C96.4365 316.968 95.9035 317.874 95.5545 318.511C95.2045 319.146 95.0235 319.505 95.0505 319.521Z" fill="#263238"/>
<path d="M117.232 328.452C117.176 328.492 117.777 329.416 118.731 330.916C119.686 332.416 120.98 334.502 122.321 336.857C123.661 339.214 124.792 341.393 125.594 342.98C126.396 344.567 126.884 345.554 126.947 345.527C127.002 345.503 126.62 344.467 125.891 342.838C125.163 341.209 124.072 338.996 122.726 336.627C121.378 334.26 120.033 332.191 119.005 330.734C117.977 329.275 117.281 328.417 117.232 328.452Z" fill="#263238"/>
<path d="M124.821 356.289C124.854 356.352 126.072 355.757 128.067 354.86C130.061 353.962 132.846 352.788 135.992 351.685C139.141 350.585 142.05 349.765 144.168 349.224C146.287 348.681 147.61 348.388 147.597 348.318C147.591 348.287 147.253 348.323 146.646 348.417C146.039 348.508 145.165 348.673 144.092 348.904C141.945 349.365 139.005 350.14 135.838 351.246C132.673 352.356 129.892 353.585 127.926 354.563C126.942 355.051 126.157 355.466 125.626 355.774C125.094 356.078 124.806 356.26 124.821 356.289Z" fill="#263238"/>
<path d="M118.847 389.567C118.843 389.583 118.979 389.628 119.241 389.7C119.557 389.781 119.936 389.877 120.391 389.993C121.468 390.242 122.902 390.572 124.639 390.973C128.22 391.805 133.209 392.846 138.514 394.635C143.82 396.441 148.372 398.738 151.459 400.716C153.006 401.702 154.212 402.572 155.025 403.199C155.842 403.822 156.287 404.178 156.311 404.15C156.321 404.138 156.223 404.034 156.025 403.848C155.824 403.666 155.538 403.384 155.138 403.058C154.356 402.384 153.173 401.468 151.637 400.441C148.574 398.377 144.004 396.013 138.664 394.195C133.317 392.392 128.308 391.402 124.707 390.651C122.957 390.309 121.512 390.027 120.427 389.815C119.416 389.628 118.854 389.535 118.847 389.567Z" fill="#263238"/>
<path d="M97.2408 397.77C97.3678 397.789 98.1288 393.308 98.9398 387.764C99.7508 382.218 100.306 377.709 100.178 377.69C100.051 377.671 99.2908 382.151 98.4788 387.697C97.6688 393.241 97.1138 397.751 97.2408 397.77Z" fill="#263238"/>
<path d="M74.7479 389.602C74.8019 389.642 75.5589 388.707 76.7749 387.195C77.9909 385.682 79.6749 383.597 81.5789 381.33C83.4849 379.063 85.2489 377.045 86.5299 375.587C87.8109 374.128 88.6009 373.222 88.5519 373.176C88.5289 373.154 88.3009 373.352 87.9079 373.728C87.5139 374.104 86.9599 374.663 86.2879 375.365C84.9419 376.769 83.1339 378.758 81.2229 381.031C79.3139 383.304 77.6659 385.427 76.5149 386.995C75.9389 387.779 75.4839 388.421 75.1809 388.873C74.8769 389.324 74.7219 389.583 74.7479 389.602Z" fill="#263238"/>
<path d="M134.276 410.464V421.579H131.498L121.618 452.762H99.7086L90.1376 421.888L86.4326 421.579V410.464H134.276Z" fill="#455A64"/>
<path d="M88.2842 421.888C88.2842 422.016 97.9582 422.121 109.889 422.121C121.824 422.121 131.496 422.017 131.496 421.888C131.496 421.76 121.824 421.655 109.889 421.655C97.9592 421.655 88.2842 421.759 88.2842 421.888Z" fill="#263238"/>
<path d="M72.5274 350.394C72.5214 350.426 73.0214 350.559 73.9314 350.774C74.9184 351.012 76.2134 351.324 77.7774 351.701C81.0184 352.504 85.4684 353.722 90.2964 355.343C95.1244 356.97 99.4074 358.688 102.474 360.007C103.947 360.652 105.168 361.185 106.098 361.592C106.952 361.971 107.432 362.167 107.446 362.138C107.46 362.109 107.008 361.858 106.176 361.428C105.346 360.995 104.128 360.404 102.607 359.705C99.5674 358.306 95.2884 356.533 90.4444 354.901C85.6004 353.275 81.1194 352.102 77.8524 351.38C76.2184 351.017 74.8904 350.752 73.9674 350.596C73.0454 350.436 72.5334 350.363 72.5274 350.394Z" fill="#263238"/>
<path d="M95.5586 439.204C95.5586 439.332 102.346 439.437 110.717 439.437C119.091 439.437 125.876 439.333 125.876 439.204C125.876 439.075 119.09 438.971 110.717 438.971C102.347 438.972 95.5586 439.076 95.5586 439.204Z" fill="#FAFAFA"/>
<path d="M94.7061 436.627C94.7061 436.755 101.899 436.86 110.77 436.86C119.644 436.86 126.835 436.756 126.835 436.627C126.835 436.499 119.644 436.394 110.77 436.394C101.899 436.395 94.7061 436.499 94.7061 436.627Z" fill="#FAFAFA"/>
</svg>
